<?xml version="1.0" encoding="UTF-8"?>
<svg version="1.1" xmlns="http://www.w3.org/2000/svg" width="500" height="500">
<path d="M0 0 C0 0.99 0 1.98 0 3 C-2.9528472 4.4764236 -5.68448983 4.22272939 -8.9765625 4.31640625 C-9.66181 4.33718735 -10.3470575 4.35796844 -11.05307007 4.37937927 C-13.24361069 4.44480185 -15.43427189 4.50372554 -17.625 4.5625 C-19.1093875 4.60569218 -20.59376278 4.6493067 -22.078125 4.69335938 C-25.71862084 4.80047553 -29.35925251 4.90176362 -33 5 C-32.67 5.66 -32.34 6.32 -32 7 C-34.13521243 8.06760622 -35.68475585 8.3072457 -38.04296875 8.61328125 C-38.86249023 8.72494629 -39.68201172 8.83661133 -40.52636719 8.95166016 C-41.40454102 9.0707373 -42.28271484 9.18981445 -43.1875 9.3125 C-50.94618179 10.40874463 -58.31898373 12.00673044 -65.84765625 14.1484375 C-70.94803867 15.52623597 -75.70993951 16 -81 16 C-82.0725 16.70125 -83.145 17.4025 -84.25 18.125 C-94.80504554 25.01294332 -107.99255875 27.97036201 -119.9609375 31.5 C-131.19993577 34.82622377 -142.14839904 38.19621125 -152.54296875 43.69921875 C-155.61769792 45.32701654 -158.80302504 46.62986787 -162 48 C-163.96273642 48.97031054 -165.9206208 49.95046466 -167.875 50.9375 C-171.56472982 52.79161235 -175.25356841 54.63779327 -179 56.375 C-179.680625 56.69210938 -180.36125 57.00921875 -181.0625 57.3359375 C-183 58 -183 58 -187 58 C-187 58.66 -187 59.32 -187 60 C-189.9826906 61.52448631 -192.818202 62.93940067 -196 64 C-196 64.66 -196 65.32 -196 66 C-197.32 66 -198.64 66 -200 66 C-200 66.66 -200 67.32 -200 68 C-204.94165059 72.05293477 -210.30465557 75.15232778 -216 78 C-218.07570483 79.48146726 -220.09420607 81.02445897 -222.11328125 82.58203125 C-224.31339049 84.2355295 -226.6243096 85.6141806 -229 87 C-229.721875 87.556875 -230.44375 88.11375 -231.1875 88.6875 C-233 90 -233 90 -235 90 C-235 90.66 -235 91.32 -235 92 C-237.08203125 93.47265625 -237.08203125 93.47265625 -239.8125 95.0625 C-240.70582031 95.58972656 -241.59914062 96.11695312 -242.51953125 96.66015625 C-245 98 -245 98 -248 99 C-248 99.66 -248 100.32 -248 101 C-248.66 101 -249.32 101 -250 101 C-250 101.66 -250 102.32 -250 103 C-251.64453125 104.47265625 -251.64453125 104.47265625 -253.8125 106.0625 C-254.52019531 106.58972656 -255.22789062 107.11695313 -255.95703125 107.66015625 C-258 109 -258 109 -261 110 C-261 110.66 -261 111.32 -261 112 C-262.483338 112.93715922 -264.0144669 113.79907474 -265.5625 114.625 C-269.9790769 117.18846771 -272.83338114 119.78336269 -276.01953125 123.71875 C-278.51639519 126.59482207 -281.24651486 129.12825883 -284.0625 131.6875 C-284.55733887 132.13891357 -285.05217773 132.59032715 -285.56201172 133.05541992 C-288.09184681 135.341663 -290.66556794 137.55430131 -293.30859375 139.70703125 C-296.02014593 141.71461163 -296.02014593 141.71461163 -297 144 C-297.66 144 -298.32 144 -299 144 C-299 144.66 -299 145.32 -299 146 C-301.375 148.625 -301.375 148.625 -304 151 C-304.66 151 -305.32 151 -306 151 C-306 151.66 -306 152.32 -306 153 C-307.875 155.125 -307.875 155.125 -310 157 C-310.66 157 -311.32 157 -312 157 C-312 157.66 -312 158.32 -312 159 C-312.99 159 -313.98 159 -315 159 C-315.21269531 159.69738281 -315.42539062 160.39476562 -315.64453125 161.11328125 C-317.36635032 164.78021006 -319.88832012 167.33148181 -322.6875 170.1875 C-327.22419139 174.92867538 -331.14915845 179.72094693 -334.6953125 185.26953125 C-335.12585938 185.84058594 -335.55640625 186.41164062 -336 187 C-336.66 187 -337.32 187 -338 187 C-338.3403125 188.175625 -338.3403125 188.175625 -338.6875 189.375 C-340 192 -340 192 -342.5 192.9375 C-345.3445866 193.80354352 -345.3445866 193.80354352 -346.3125 197.125 C-346.539375 198.07375 -346.76625 199.0225 -347 200 C-347.66 200 -348.32 200 -349 200 C-349.103125 200.556875 -349.20625 201.11375 -349.3125 201.6875 C-350.14178408 204.4769101 -351.34299056 206.6139064 -353 209 C-353.66 209 -354.32 209 -355 209 C-355.33 210.32 -355.66 211.64 -356 213 C-356.66 213 -357.32 213 -358 213 C-358.28875 213.928125 -358.5775 214.85625 -358.875 215.8125 C-360 219 -360 219 -362 222 C-362.66 222 -363.32 222 -364 222 C-364.26683594 222.72960937 -364.53367187 223.45921875 -364.80859375 224.2109375 C-365.98442646 226.96354259 -367.35094877 229.1775238 -369.0625 231.625 C-370.83987829 234.17156156 -372.01065939 236.03197816 -373 239 C-373.66 239 -374.32 239 -375 239 C-375.0825 239.52464844 -375.165 240.04929687 -375.25 240.58984375 C-376.28550086 243.9174689 -378.14724888 246.64252089 -380 249.5625 C-384.1240932 256.22539431 -387.56632071 263.08720318 -390.81640625 270.21313477 C-393.29499905 275.62925456 -396.03854437 280.83199961 -399 286 C-399.66 286 -400.32 286 -401 286 C-401.12149414 286.71462402 -401.24298828 287.42924805 -401.36816406 288.16552734 C-402.0173967 291.07804316 -402.95468095 293.60222136 -404.109375 296.3515625 C-404.53476562 297.36863281 -404.96015625 298.38570313 -405.3984375 299.43359375 C-405.84445312 300.48675781 -406.29046875 301.53992188 -406.75 302.625 C-407.18054688 303.65496094 -407.61109375 304.68492187 -408.0546875 305.74609375 C-410.14304844 310.71689298 -412.28871563 315.64398104 -414.57421875 320.52734375 C-417.17229371 326.19921191 -419.15122902 332.00451655 -421.0625 337.9375 C-421.72005208 339.94661458 -422.37760417 341.95572917 -423.03515625 343.96484375 C-423.35371582 344.94565918 -423.67227539 345.92647461 -424.00048828 346.93701172 C-425.64168282 351.96642713 -427.32102027 356.98309505 -429 362 C-429.66 362 -430.32 362 -431 362 C-430.938125 362.845625 -430.87625 363.69125 -430.8125 364.5625 C-430.99175059 367.84876087 -431.69588311 369.82086026 -433.07421875 372.75390625 C-435.22927882 377.98242751 -436.52171647 383.5500191 -438 389 C-438.20753906 389.74636719 -438.41507812 390.49273437 -438.62890625 391.26171875 C-439.94528665 396.20591916 -440.74387161 401.21709822 -441.53515625 406.265625 C-441.92403599 408.55315285 -442.3976377 410.76113129 -443 413 C-442.030625 412.68546875 -441.06125 412.3709375 -440.0625 412.046875 C-433.0644465 409.80471171 -426.0960395 407.72857434 -418.9375 406.0625 C-410.30310489 404.02729551 -401.94225637 400.97112819 -394 397 C-391.70190464 396.69130062 -389.40279871 396.49116352 -387.09375 396.28125 C-384.94556067 396.107845 -384.94556067 396.107845 -383 395 C-379.58949147 394.73317501 -376.16977999 394.76841066 -372.75 394.75 C-371.80769531 394.729375 -370.86539063 394.70875 -369.89453125 394.6875 C-364.48412857 394.65714711 -360.68470153 394.96872254 -356 398 C-355 399 -355 399 -354.90234375 401.28515625 C-354.91974609 402.65994141 -354.91974609 402.65994141 -354.9375 404.0625 C-354.94652344 404.98160156 -354.95554687 405.90070313 -354.96484375 406.84765625 C-354.98224609 407.91306641 -354.98224609 407.91306641 -355 409 C-356.670625 409.3403125 -356.670625 409.3403125 -358.375 409.6875 C-362.16038373 410.60623658 -362.16038373 410.60623658 -363.4375 413.625 C-363.7159375 414.800625 -363.7159375 414.800625 -364 416 C-363.01 416.33 -362.02 416.66 -361 417 C-361 418.65 -361 420.3 -361 422 C-362.28390625 422.14695312 -363.5678125 422.29390625 -364.890625 422.4453125 C-375.1646584 423.7155994 -384.7497213 425.6131525 -394.59863281 428.80053711 C-401.13967113 430.86867852 -407.60006483 432.07283297 -414.38549805 433.02075195 C-419.92799432 433.7971122 -425.25674963 434.93534702 -430.65234375 436.44921875 C-433 437 -433 437 -437 437 C-437 437.66 -437 438.32 -437 439 C-438.134375 439.391875 -439.26875 439.78375 -440.4375 440.1875 C-445.29777266 442.00142319 -451.27792174 444.27792174 -455 448 C-460.42310471 447.66797318 -465.61741401 446.36710875 -470 443 C-470.33 441.68 -470.66 440.36 -471 439 C-473.97 439 -476.94 439 -480 439 C-481.64909104 418.87596072 -482.35674284 398.8726332 -482.54260254 378.69049072 C-482.59593424 372.98678003 -482.66009179 367.28321407 -482.73081779 361.57969475 C-482.75331739 359.61775434 -482.7695123 357.65574482 -482.78553772 355.69374084 C-482.79902756 354.50646896 -482.8125174 353.31919708 -482.82641602 352.09594727 C-482.84068382 350.54170799 -482.84068382 350.54170799 -482.85523987 348.95606995 C-483.0047645 345.90270661 -483.45890817 343.00618843 -484 340 C-484.12645923 338.24423751 -484.22014913 336.48581249 -484.28125 334.7265625 C-484.31822998 333.74381348 -484.35520996 332.76106445 -484.39331055 331.74853516 C-484.42851807 330.71776855 -484.46372559 329.68700195 -484.5 328.625 C-484.81250795 319.77520401 -484.81250795 319.77520401 -485.35546875 310.9375 C-485.41089844 310.19935059 -485.46632813 309.46120117 -485.5234375 308.70068359 C-485.67759802 306.75027774 -485.84423174 304.80086919 -486.01171875 302.8515625 C-486 300 -486 300 -484 298 C-480.375 297.875 -480.375 297.875 -477 298 C-476.67 297.01 -476.34 296.02 -476 295 C-475.01 295 -474.02 295 -473 295 C-473 294.01 -473 293.02 -473 292 C-471.02 292 -469.04 292 -467 292 C-467 292.66 -467 293.32 -467 294 C-466.34 294 -465.68 294 -465 294 C-462.60702564 297.80982582 -462.33775152 301.88746342 -461.91015625 306.26171875 C-461.82637222 307.09080246 -461.7425882 307.91988617 -461.65626526 308.77409363 C-460.66520559 319.43206398 -460.57510087 330.11638277 -460.4375 340.8125 C-460.39329978 343.90434195 -460.34658832 346.99609166 -460.29469299 350.08781433 C-460.26316282 351.98985079 -460.23614767 353.8919695 -460.21446228 355.79414368 C-460.1437242 360.29949115 -459.90433279 364.56580801 -459 369 C-458.81824219 368.38253906 -458.63648438 367.76507813 -458.44921875 367.12890625 C-457.21743062 362.97872778 -455.96624346 358.84553725 -454.5625 354.75 C-453.28068129 350.97095936 -452.19233364 347.15747299 -451.125 343.3125 C-449.39790358 337.17832997 -447.34172935 331.22082732 -445.15234375 325.23828125 C-444.17286185 322.48577109 -443.30280148 319.74503737 -442.5 316.9375 C-439.91990115 308.11008314 -436.47752108 299.72458387 -432.23828125 291.57421875 C-430.85929098 288.70748503 -429.77598569 285.80128511 -428.6875 282.8125 C-425.81655291 275.14761296 -421.9661403 268.13700285 -418 261 C-417.04019815 259.25080499 -416.08174433 257.50086923 -415.125 255.75 C-414.65320313 254.89148438 -414.18140625 254.03296875 -413.6953125 253.1484375 C-412.3127669 250.58085281 -410.95844642 248.00324801 -409.6171875 245.4140625 C-401.7175321 230.18550589 -401.7175321 230.18550589 -397.43359375 224.10546875 C-394.34998614 219.57668264 -391.71898444 214.75328514 -389 210 C-388.56042969 209.23429688 -388.12085938 208.46859375 -387.66796875 207.6796875 C-386.77540519 206.12164368 -385.88704204 204.56119399 -385 203 C-384.34 203 -383.68 203 -383 203 C-382.5359375 201.824375 -382.5359375 201.824375 -382.0625 200.625 C-381 198 -381 198 -380 196 C-379.34 196 -378.68 196 -378 196 C-377.74863281 195.28585938 -377.49726563 194.57171875 -377.23828125 193.8359375 C-375.8831301 190.73234213 -374.21659418 188.33304539 -372.1875 185.625 C-369.77428986 182.38840781 -367.40025255 179.14727314 -365.125 175.8125 C-364.073125 174.4203125 -364.073125 174.4203125 -363 173 C-362.34 173 -361.68 173 -361 173 C-360.34 171.35 -359.68 169.7 -359 168 C-358.34 168 -357.68 168 -357 168 C-357 167.34 -357 166.68 -357 166 C-356.34 166 -355.68 166 -355 166 C-354.74734375 165.43925781 -354.4946875 164.87851563 -354.234375 164.30078125 C-351.80303897 159.76895555 -348.25932627 155.9560224 -345 152 C-344.40960938 151.27167969 -343.81921875 150.54335937 -343.2109375 149.79296875 C-341.85572435 148.15402871 -340.43394872 146.57051526 -339 145 C-338.34 145 -337.68 145 -337 145 C-337 144.34 -337 143.68 -337 143 C-336.34 143 -335.68 143 -335 143 C-334.7525 142.443125 -334.505 141.88625 -334.25 141.3125 C-332.77075182 138.57589087 -331.06532561 136.32349131 -329 134 C-328.34 134 -327.68 134 -327 134 C-327 133.34 -327 132.68 -327 132 C-324.525 131.01 -324.525 131.01 -322 130 C-322 129.34 -322 128.68 -322 128 C-321.34 128 -320.68 128 -320 128 C-319.67 127.01 -319.34 126.02 -319 125 C-317.37897032 123.28891311 -315.70496537 121.62746694 -314 120 C-313.113125 119.071875 -312.22625 118.14375 -311.3125 117.1875 C-309 115 -309 115 -307 115 C-306.67 114.01 -306.34 113.02 -306 112 C-301.54285714 108 -301.54285714 108 -299 108 C-299 107.34 -299 106.68 -299 106 C-296.525 105.01 -296.525 105.01 -294 104 C-294 103.34 -294 102.68 -294 102 C-290.53846154 99 -290.53846154 99 -288 99 C-288 98.34 -288 97.68 -288 97 C-283.52941176 93 -283.52941176 93 -281 93 C-281 92.34 -281 91.68 -281 91 C-279.02 90.34 -277.04 89.68 -275 89 C-275 88.34 -275 87.68 -275 87 C-269.64285714 82 -269.64285714 82 -266 82 C-266 81.34 -266 80.68 -266 80 C-264.1563971 78.61509256 -262.24777736 77.31611151 -260.3125 76.0625 C-259.25675781 75.37285156 -258.20101562 74.68320313 -257.11328125 73.97265625 C-249.26534653 69 -249.26534653 69 -247 69 C-247 68.34 -247 67.68 -247 67 C-245.21182505 65.84364687 -243.36628189 64.77553114 -241.5 63.75 C-237.87160912 61.7037563 -234.46742149 59.70745235 -231.25 57.0625 C-227.35439908 54.0105324 -223.09149512 51.84116932 -218.6875 49.625 C-217.98077148 49.26672119 -217.27404297 48.90844238 -216.54589844 48.53930664 C-211.38175323 46 -211.38175323 46 -208 46 C-208 45.34 -208 44.68 -208 44 C-199.20365131 39.16464186 -190.56937758 34.59973741 -181.109375 31.17578125 C-177.82135656 29.93244764 -174.67789799 28.50151879 -171.5 27 C-156.27004757 19.86836958 -140.60575331 14.79220093 -124.14477539 11.51928711 C-118.05232916 10.28574107 -112.15341508 8.66940076 -106.20996094 6.85986328 C-98.86868033 4.62997079 -91.4607707 2.78259403 -84 1 C-82.94425781 0.7215625 -81.88851563 0.443125 -80.80078125 0.15625 C-61.87426815 -4.49971878 -17.41606148 -11.61070765 0 0 Z M-388 419 C-389.98 419.66 -391.96 420.32 -394 421 C-390.86650268 422.04449911 -390.01031744 421.93423645 -387 421 C-387.33 420.34 -387.66 419.68 -388 419 Z M-449 436 C-449.33 436.66 -449.66 437.32 -450 438 C-446.08406554 437.21681311 -442.63593365 435.60820142 -439 434 C-443.05756771 432.28333674 -445.39629137 433.83777482 -449 436 Z M-454 439 C-455.98 439.99 -455.98 439.99 -458 441 C-458 441.66 -458 442.32 -458 443 C-456.35 442.34 -454.7 441.68 -453 441 C-453.33 440.34 -453.66 439.68 -454 439 Z " fill="#6199D0" transform="translate(493,28)"/>
<path d="M0 0 C0.12375 0.804375 0.2475 1.60875 0.375 2.4375 C0.58125 3.283125 0.7875 4.12875 1 5 C1.66 5.33 2.32 5.66 3 6 C1.02 6.33 -0.96 6.66 -3 7 C-3 7.66 -3 8.32 -3 9 C-4.134375 9.391875 -5.26875 9.78375 -6.4375 10.1875 C-11.29777266 12.00142319 -17.27792174 14.27792174 -21 18 C-22.66617115 18.04063832 -24.33388095 18.042721 -26 18 C-25.67 15.69 -25.34 13.38 -25 11 C-25.66 10.67 -26.32 10.34 -27 10 C-25.35 10 -23.7 10 -22 10 C-22.99 10.495 -22.99 10.495 -24 11 C-24 11.66 -24 12.32 -24 13 C-20.83884224 11.63016497 -20.0072908 11.0109362 -18 8 C-15.8359375 7.05078125 -15.8359375 7.05078125 -13.375 6.3125 C-12.55773438 6.06113281 -11.74046875 5.80976563 -10.8984375 5.55078125 C-10.27195312 5.36902344 -9.64546875 5.18726563 -9 5 C-9.33 4.67 -9.66 4.34 -10 4 C-10 3.34 -10 2.68 -10 2 C-8.7090864 1.66376204 -7.41723903 1.33110751 -6.125 1 C-5.40570313 0.814375 -4.68640625 0.62875 -3.9453125 0.4375 C-2 0 -2 0 0 0 Z " fill="#7FAAD1" transform="translate(59,458)"/>
<path d="M0 0 C0 0.99 0 1.98 0 3 C-2.76452033 4.38226016 -5.0461363 4.09525387 -8.125 4.0625 C-9.22070312 4.05347656 -10.31640625 4.04445313 -11.4453125 4.03515625 C-12.70988281 4.01775391 -12.70988281 4.01775391 -14 4 C-14 3.34 -14 2.68 -14 2 C-18.62 2 -23.24 2 -28 2 C-28.33 1.01 -28.66 0.02 -29 -1 C-25.43798805 -1.19766544 -21.87538633 -1.38133629 -18.3125 -1.5625 C-17.30509766 -1.61857422 -16.29769531 -1.67464844 -15.25976562 -1.73242188 C-13.79506836 -1.80493164 -13.79506836 -1.80493164 -12.30078125 -1.87890625 C-11.40528564 -1.9260376 -10.50979004 -1.97316895 -9.5871582 -2.02172852 C-6.11384602 -1.99255754 -3.11766571 -1.55883285 0 0 Z " fill="#5C97D0" transform="translate(493,28)"/>
<path d="M0 0 C0.12375 0.804375 0.2475 1.60875 0.375 2.4375 C0.58125 3.283125 0.7875 4.12875 1 5 C1.66 5.33 2.32 5.66 3 6 C1.02 6.33 -0.96 6.66 -3 7 C-3 7.66 -3 8.32 -3 9 C-6.3 9.33 -9.6 9.66 -13 10 C-12 6 -12 6 -9 4 C-9.33 3.34 -9.66 2.68 -10 2 C-8.7090864 1.66376204 -7.41723903 1.33110751 -6.125 1 C-5.40570313 0.814375 -4.68640625 0.62875 -3.9453125 0.4375 C-2 0 -2 0 0 0 Z " fill="#7AA6D1" transform="translate(59,458)"/>
<path d="M0 0 C-17.98314607 11 -17.98314607 11 -24 11 C-24 10.34 -24 9.68 -24 9 C-22.68 9 -21.36 9 -20 9 C-20.33 8.01 -20.66 7.02 -21 6 C-20.34 6 -19.68 6 -19 6 C-17.98888907 2.95086772 -17.98888907 2.95086772 -19 0 C-18.01 0 -17.02 0 -16 0 C-16 0.66 -16 1.32 -16 2 C-12.7 2 -9.4 2 -6 2 C-6 1.34 -6 0.68 -6 0 C-3 -1 -3 -1 0 0 Z " fill="#76A2D0" transform="translate(334,74)"/>
<path d="M0 0 C0.66 0 1.32 0 2 0 C1.50932206 3.27118625 0.89138549 6.4199761 0.0625 9.625 C-1.32694382 15.01687154 -2.1282316 20.50566137 -3 26 C-3.33182807 28.0002503 -3.66474236 30.00032167 -4 32 C-4.99 31.67 -5.98 31.34 -7 31 C-6.42415568 28.61435923 -5.77772405 26.33317216 -5 24 C-4.87246439 22.18899431 -4.77179436 20.37603285 -4.6875 18.5625 C-4.20310369 11.9504903 -2.35063091 6.16630619 0 0 Z " fill="#8CAFD2" transform="translate(54,411)"/>
<path d="M0 0 C3.3 0 6.6 0 10 0 C9.67 0.66 9.34 1.32 9 2 C8.34 2 7.68 2 7 2 C7 2.66 7 3.32 7 4 C5.68 4 4.36 4 3 4 C3 4.66 3 5.32 3 6 C0.69 7.32 -1.62 8.64 -4 10 C-4.33 8.35 -4.66 6.7 -5 5 C-3.35 4.67 -1.7 4.34 0 4 C0 2.68 0 1.36 0 0 Z " fill="#84B2DC" transform="translate(290,90)"/>
<path d="M0 0 C0.66 0.33 1.32 0.66 2 1 C1.59007813 2.08539063 1.18015625 3.17078125 0.7578125 4.2890625 C0.21348243 5.73435269 -0.33078509 7.17966644 -0.875 8.625 C-1.27912109 9.69427734 -1.27912109 9.69427734 -1.69140625 10.78515625 C-3.2134184 14.83148122 -4.66372172 18.88737656 -6 23 C-6.33 23 -6.66 23 -7 23 C-7.22937511 18.28347435 -6.46206455 14.6025727 -5 10.125 C-4.62875 8.97257812 -4.2575 7.82015625 -3.875 6.6328125 C-3.58625 5.76398438 -3.2975 4.89515625 -3 4 C-2.34 4 -1.68 4 -1 4 C-0.67 2.68 -0.34 1.36 0 0 Z " fill="#8AB1D2" transform="translate(78,343)"/>
<path d="M0 0 C0.99 1.32 1.98 2.64 3 4 C1.68 4 0.36 4 -1 4 C-1 5.65 -1 7.3 -1 9 C-1.804375 9.2475 -2.60875 9.495 -3.4375 9.75 C-4.7059375 10.36875 -4.7059375 10.36875 -6 11 C-6.65213292 13.02463255 -6.65213292 13.02463255 -7 15 C-7.99 15.33 -8.98 15.66 -10 16 C-9.67 14.68 -9.34 13.36 -9 12 C-8.34 12 -7.68 12 -7 12 C-6.690625 11.21625 -6.38125 10.4325 -6.0625 9.625 C-5 7 -5 7 -4 5 C-3.34 5 -2.68 5 -2 5 C-1.34 3.35 -0.68 1.7 0 0 Z " fill="#87ACD2" transform="translate(117,219)"/>
<path d="M0 0 C2.00720923 0.28674418 4.0085944 0.61866701 6 1 C6 1.66 6 2.32 6 3 C8.64 3.33 11.28 3.66 14 4 C14 4.33 14 4.66 14 5 C9.05 5.66 4.1 6.32 -1 7 C-0.67 6.34 -0.34 5.68 0 5 C-0.32380126 3.66431979 -0.65657551 2.33076989 -1 1 C-0.67 0.67 -0.34 0.34 0 0 Z " fill="#7FABD8" transform="translate(67,456)"/>
<path d="M0 0 C1.32 0.66 2.64 1.32 4 2 C1.65477571 4.34522429 0.74276002 4.39438385 -2.46484375 4.8515625 C-3.34720703 4.98046875 -4.22957031 5.109375 -5.13867188 5.2421875 C-6.5240918 5.43167969 -6.5240918 5.43167969 -7.9375 5.625 C-8.85724609 5.7590625 -9.77699219 5.893125 -10.72460938 6.03125 C-17.50091677 7 -17.50091677 7 -21 7 C-21 6.34 -21 5.68 -21 5 C-16.545 4.505 -16.545 4.505 -12 4 C-12 3.67 -12 3.34 -12 3 C-11.21753906 2.95101562 -10.43507813 2.90203125 -9.62890625 2.8515625 C-8.61699219 2.77679688 -7.60507812 2.70203125 -6.5625 2.625 C-5.55316406 2.55539063 -4.54382813 2.48578125 -3.50390625 2.4140625 C-2.67761719 2.27742188 -1.85132813 2.14078125 -1 2 C-0.67 1.34 -0.34 0.68 0 0 Z " fill="#92B5D7" transform="translate(457,32)"/>
<path d="M0 0 C1.65 0 3.3 0 5 0 C4.01 0.495 4.01 0.495 3 1 C3 1.66 3 2.32 3 3 C0.8828125 4.4375 0.8828125 4.4375 -1.875 6 C-5.68883379 8.16744189 -5.68883379 8.16744189 -9 11 C-9.33 10.01 -9.66 9.02 -10 8 C-9.34 7.34 -8.68 6.68 -8 6 C-7.01 6 -6.02 6 -5 6 C-5 5.34 -5 4.68 -5 4 C-4.34 3.34 -3.68 2.68 -3 2 C-2.01 2 -1.02 2 0 2 C0 1.34 0 0.68 0 0 Z " fill="#86AFD2" transform="translate(229,137)"/>
<path d="M0 0 C3.90861793 3.81430812 3.54726724 8.12148763 3.6875 13.25 C3.72166016 14.09046875 3.75582031 14.9309375 3.79101562 15.796875 C3.87323568 17.86412204 3.93830157 19.93203874 4 22 C3.34 22 2.68 22 2 22 C1.66304138 19.27123692 1.33031571 16.54206837 1 13.8125 C0.90460937 13.04357422 0.80921875 12.27464844 0.7109375 11.48242188 C0.24807106 7.63071189 -0.12467468 3.88829149 0 0 Z " fill="#81AACD" transform="translate(27,322)"/>
<path d="M0 0 C3.12290635 0.48578543 5.99580359 0.9986012 9 2 C7.44148245 2.82011312 5.87798284 3.63076213 4.3125 4.4375 C3.00732422 5.11619141 3.00732422 5.11619141 1.67578125 5.80859375 C-0.90998264 6.95991928 -3.21356528 7.56320753 -6 8 C-6 7.34 -6 6.68 -6 6 C-4.68 6 -3.36 6 -2 6 C-2.33 5.01 -2.66 4.02 -3 3 C-2.34 3 -1.68 3 -1 3 C-0.67 2.01 -0.34 1.02 0 0 Z " fill="#80ABD2" transform="translate(316,77)"/>
<path d="M0 0 C0.33 0.66 0.66 1.32 1 2 C1.99 2.33 2.98 2.66 4 3 C3.01 3.33 2.02 3.66 1 4 C0.814375 5.2065625 0.814375 5.2065625 0.625 6.4375 C-0.11554163 10.65858729 -1.04401126 14.82335017 -2 19 C-2.99 19 -3.98 19 -5 19 C-4.35561067 16.39546825 -3.7095496 13.7913709 -3.0625 11.1875 C-2.88009766 10.44951172 -2.69769531 9.71152344 -2.50976562 8.95117188 C-1.7577385 5.92939016 -0.98514427 2.95543282 0 0 Z " fill="#89B2D5" transform="translate(42,370)"/>
<path d="M0 0 C-7.51333004 2.8917284 -13.92386148 4.64323227 -22 4 C-18.36343385 1.87014412 -14.52410479 1.11248146 -10.4375 0.3125 C-9.76525391 0.17005859 -9.09300781 0.02761719 -8.40039062 -0.11914062 C-5.11277307 -0.77535823 -3.23577251 -1.07859084 0 0 Z " fill="#93B3D7" transform="translate(371,41)"/>
<path d="M0 0 C1.65 0.33 3.3 0.66 5 1 C5 1.99 5 2.98 5 4 C2.23547967 5.38226016 -0.0461363 5.09525387 -3.125 5.0625 C-4.22070312 5.05347656 -5.31640625 5.04445313 -6.4453125 5.03515625 C-7.70988281 5.01775391 -7.70988281 5.01775391 -9 5 C-9 4.34 -9 3.68 -9 3 C-5.7 3 -2.4 3 1 3 C0.67 2.01 0.34 1.02 0 0 Z " fill="#99B8D7" transform="translate(488,27)"/>
<path d="M0 0 C0.33 0.66 0.66 1.32 1 2 C3.31 2 5.62 2 8 2 C8 2.33 8 2.66 8 3 C7.15695313 3.13277344 6.31390625 3.26554687 5.4453125 3.40234375 C4.34960938 3.57894531 3.25390625 3.75554687 2.125 3.9375 C1.03445312 4.11152344 -0.05609375 4.28554688 -1.1796875 4.46484375 C-3.93821546 4.85551159 -3.93821546 4.85551159 -6 6 C-7.99960012 6.039992 -10.00047242 6.04346799 -12 6 C-12 5.67 -12 5.34 -12 5 C-10.35 5 -8.7 5 -7 5 C-6.67 4.01 -6.34 3.02 -6 2 C-2.9375 0.8125 -2.9375 0.8125 0 0 Z " fill="#8CB1D9" transform="translate(115,448)"/>
<path d="M0 0 C-0.11458693 1.43836751 -0.24209116 2.87570966 -0.375 4.3125 C-0.44460937 5.11300781 -0.51421875 5.91351563 -0.5859375 6.73828125 C-1 9 -1 9 -3 12 C-3.66 12 -4.32 12 -5 12 C-5.33 12.66 -5.66 13.32 -6 14 C-6 13.01 -6 12.02 -6 11 C-5.34 11 -4.68 11 -4 11 C-4.0309375 9.3603125 -4.0309375 9.3603125 -4.0625 7.6875 C-4 4 -4 4 -3 1 C-1 0 -1 0 0 0 Z " fill="#74A0CE" transform="translate(85,327)"/>
<path d="M0 0 C0.93457031 0.00966797 1.86914062 0.01933594 2.83203125 0.02929688 C3.80011719 0.05443359 4.76820312 0.07957031 5.765625 0.10546875 C7.24095703 0.12577148 7.24095703 0.12577148 8.74609375 0.14648438 C11.16982915 0.18178149 13.59244645 0.23108821 16.015625 0.29296875 C16.015625 0.62296875 16.015625 0.95296875 16.015625 1.29296875 C3.640625 2.28296875 3.640625 2.28296875 -8.984375 3.29296875 C-4.484375 -0.08203125 -4.484375 -0.08203125 0 0 Z " fill="#84A8CC" transform="translate(114.984375,422.70703125)"/>
<path d="M0 0 C-4.63152106 3.08768071 -9.57248842 3 -15 3 C-16.36161311 3.96113866 -17.69855198 4.95884159 -19 6 C-19.66 6 -20.32 6 -21 6 C-21 5.01 -21 4.02 -21 3 C-20.01 3 -19.02 3 -18 3 C-18 2.34 -18 1.68 -18 1 C-12.03325384 -0.32594359 -6.07416385 -0.0884587 0 0 Z " fill="#A3C0DE" transform="translate(427,41)"/>
<path d="M0 0 C1.98 0 3.96 0 6 0 C6.33 1.65 6.66 3.3 7 5 C2.375 7.125 2.375 7.125 -1 6 C-0.835 5.38125 -0.67 4.7625 -0.5 4.125 C0.07634644 2.03936614 0.07634644 2.03936614 0 0 Z " fill="#7EA9D2" transform="translate(96,450)"/>
<path d="M0 0 C0.99 0.495 0.99 0.495 2 1 C2.3548954 2.99628664 2.68578929 4.99690671 3 7 C3.391875 7.70125 3.78375 8.4025 4.1875 9.125 C5 11 5 11 4.125 13.25 C3.75375 13.8275 3.3825 14.405 3 15 C2.67 14.01 2.34 13.02 2 12 C1.34 11.01 0.68 10.02 0 9 C-0.1953125 6.73828125 -0.1953125 6.73828125 -0.125 4.3125 C-0.10695313 3.50425781 -0.08890625 2.69601562 -0.0703125 1.86328125 C-0.04710938 1.24839844 -0.02390625 0.63351562 0 0 Z " fill="#79A5D3" transform="translate(31,390)"/>
<path d="M0 0 C1.98 0 3.96 0 6 0 C6 2 6 2 4.9375 3.5625 C2.13662511 5.64056847 -0.58791584 5.67810527 -4 6 C-3.67 5.01 -3.34 4.02 -3 3 C-2.01 3 -1.02 3 0 3 C0 2.01 0 1.02 0 0 Z " fill="#81ABD3" transform="translate(20,320)"/>
<path d="M0 0 C0.66 0.99 1.32 1.98 2 3 C-0.97 7.95 -0.97 7.95 -4 13 C-4.33 11.68 -4.66 10.36 -5 9 C-5.66 9 -6.32 9 -7 9 C-6.67 7.68 -6.34 6.36 -6 5 C-5.67 5.66 -5.34 6.32 -5 7 C-4.34 7 -3.68 7 -3 7 C-2.67 6.01 -2.34 5.02 -2 4 C-1.34 4 -0.68 4 0 4 C0 2.68 0 1.36 0 0 Z " fill="#7DAAD0" transform="translate(115,268)"/>
<path d="M0 0 C0.66 0.99 1.32 1.98 2 3 C1.67 3.66 1.34 4.32 1 5 C0.34 5 -0.32 5 -1 5 C-1.33 6.32 -1.66 7.64 -2 9 C-2.66 9 -3.32 9 -4 9 C-4.66 10.98 -5.32 12.96 -6 15 C-6.33 15 -6.66 15 -7 15 C-7 13.35 -7 11.7 -7 10 C-5.68 9.34 -4.36 8.68 -3 8 C-3 6.35 -3 4.7 -3 3 C-2.01 2.67 -1.02 2.34 0 2 C0 1.34 0 0.68 0 0 Z " fill="#87AED2" transform="translate(139,232)"/>
<path d="M0 0 C0.33 0.66 0.66 1.32 1 2 C3.01669827 3.13350534 3.01669827 3.13350534 5 4 C3.03533587 5.06775224 1.03144641 6.06553465 -1 7 C-1.66 6.67 -2.32 6.34 -3 6 C-3 5.34 -3 4.68 -3 4 C-3.66 3.67 -4.32 3.34 -5 3 C-5 3.66 -5 4.32 -5 5 C-5.66 4.67 -6.32 4.34 -7 4 C-5 1 -5 1 -2.375 0.3125 C-1.59125 0.209375 -0.8075 0.10625 0 0 Z " fill="#98BBDD" transform="translate(46,465)"/>
<path d="M0 0 C-9.61538462 5 -9.61538462 5 -14 5 C-13.67 3.68 -13.34 2.36 -13 1 C-8.61414671 0.29826347 -4.44209357 -0.10834375 0 0 Z " fill="#8FB6D7" transform="translate(399,50)"/>
<path d="M0 0 C1.670625 0.061875 1.670625 0.061875 3.375 0.125 C-0.25 3.125 -0.25 3.125 -3.625 3.125 C-3.625 5.105 -3.625 7.085 -3.625 9.125 C-4.615 9.62 -4.615 9.62 -5.625 10.125 C-5.8203125 4.0703125 -5.8203125 4.0703125 -5.625 2.125 C-3.625 0.125 -3.625 0.125 0 0 Z " fill="#8CB1D2" transform="translate(12.625,325.875)"/>
<path d="M0 0 C0.99 0 1.98 0 3 0 C1.90711818 3.27864546 1.33827067 3.78134149 -1.375 5.6875 C-1.98085938 6.12449219 -2.58671875 6.56148438 -3.2109375 7.01171875 C-5 8 -5 8 -8 8 C-7.67 7.01 -7.34 6.02 -7 5 C-6.34 5 -5.68 5 -5 5 C-5 4.34 -5 3.68 -5 3 C-3.35 2.67 -1.7 2.34 0 2 C0 1.34 0 0.68 0 0 Z " fill="#91B2D2" transform="translate(274,104)"/>
<path d="M0 0 C0.33 0.66 0.66 1.32 1 2 C-0.14453125 4.27734375 -0.14453125 4.27734375 -1.8125 6.9375 C-2.35519531 7.81277344 -2.89789063 8.68804687 -3.45703125 9.58984375 C-4.61930639 11.40534695 -5.80424657 13.20636986 -7 15 C-6.25 8.375 -6.25 8.375 -4 5 C-3.34 5 -2.68 5 -2 5 C-2 3.68 -2 2.36 -2 1 C-1.34 0.67 -0.68 0.34 0 0 Z " fill="#90B5D4" transform="translate(100,299)"/>
<path d="M0 0 C1 2 1 2 0.375 3.9375 C-1.39260282 6.58890424 -3.12484052 7.66760902 -6 9 C-6.99 8.67 -7.98 8.34 -9 8 C-8.360625 7.731875 -7.72125 7.46375 -7.0625 7.1875 C-4.66868314 6.11332248 -4.66868314 6.11332248 -4 3 C-1.9375 1.3125 -1.9375 1.3125 0 0 Z " fill="#85AFD3" transform="translate(191,137)"/>
<path d="M0 0 C0 1.65 0 3.3 0 5 C-1.98 5 -3.96 5 -6 5 C-4.68 4.67 -3.36 4.34 -2 4 C-3.06645115 2.70366379 -3.06645115 2.70366379 -5.5625 2.9375 C-6.366875 2.958125 -7.17125 2.97875 -8 3 C-5.53387212 -0.1151089 -3.89156016 -0.31553191 0 0 Z " fill="#8EB4DA" transform="translate(108,445)"/>
<path d="M0 0 C3.3 0 6.6 0 10 0 C9.67 0.66 9.34 1.32 9 2 C8.34 2 7.68 2 7 2 C7 2.66 7 3.32 7 4 C5.35 4 3.7 4 2 4 C1.34 2.68 0.68 1.36 0 0 Z " fill="#7BA4CF" transform="translate(290,90)"/>
<path d="M0 0 C-3.20945602 2.8503026 -5.49988548 3.43451699 -9.75 3.6875 C-10.73484375 3.75324219 -11.7196875 3.81898438 -12.734375 3.88671875 C-13.48203125 3.92410156 -14.2296875 3.96148437 -15 4 C-12.18438333 2.52790818 -9.38026161 1.34273182 -6.375 0.3125 C-5.59898438 0.04050781 -4.82296875 -0.23148437 -4.0234375 -0.51171875 C-2 -1 -2 -1 0 0 Z " fill="#86AED3" transform="translate(65,438)"/>
<path d="M0 0 C1.66666667 0 3.33333333 0 5 0 C5 3 5 3 3.125 5.1875 C1 7 1 7 -1 7 C-1.33 7.99 -1.66 8.98 -2 10 C-1.46274105 6.62294375 -0.88935377 3.303314 0 0 Z " fill="#7EA8D4" transform="translate(48,352)"/>
<path d="M0 0 C0.33 0 0.66 0 1 0 C0.7357513 5.37305699 0.7357513 5.37305699 0 8 C-2.5625 10 -2.5625 10 -5 11 C-3.55049545 7.2089881 -1.84827434 3.6125362 0 0 Z " fill="#91B4D5" transform="translate(84,272)"/>
<path d="M0 0 C1.32 0.33 2.64 0.66 4 1 C4 2.65 4 4.3 4 6 C1.69 6 -0.62 6 -3 6 C-2.01 5.34 -1.02 4.68 0 4 C0 2.68 0 1.36 0 0 Z " fill="#80A5CF" transform="translate(128,444)"/>
<path d="M0 0 C0.66 0.33 1.32 0.66 2 1 C1.01 2.98 0.02 4.96 -1 7 C-3 6 -3 6 -5 4 C-4.01 3.67 -3.02 3.34 -2 3 C-2 2.34 -2 1.68 -2 1 C-1.34 0.67 -0.68 0.34 0 0 Z M-5 7 C-4.34 7 -3.68 7 -3 7 C-3 7.66 -3 8.32 -3 9 C-3.66 9 -4.32 9 -5 9 C-5 8.34 -5 7.68 -5 7 Z " fill="#82AFD8" transform="translate(214,118)"/>
<path d="M0 0 C0.33 0 0.66 0 1 0 C1.28571429 7.42857143 1.28571429 7.42857143 -1 11 C-1.66 11 -2.32 11 -3 11 C-2.44894091 7.0507432 -1.61064629 3.65079826 0 0 Z " fill="#89AED0" transform="translate(59,322)"/>
<path d="M0 0 C1.32 0.66 2.64 1.32 4 2 C2.1875 4.5 2.1875 4.5 0 7 C-0.99 7 -1.98 7 -3 7 C-1.125 1.125 -1.125 1.125 0 0 Z " fill="#83ADD3" transform="translate(183,178)"/>
<path d="M0 0 C0.66 0.33 1.32 0.66 2 1 C2 1.66 2 2.32 2 3 C1.34 3.66 0.68 4.32 0 5 C0.66 5.66 1.32 6.32 2 7 C0 8 -2 9 -4 10 C-3.29445932 6.33118845 -1.72264494 3.29549466 0 0 Z " fill="#7EA9D3" transform="translate(78,283)"/>
<path d="M0 0 C0.66 0.33 1.32 0.66 2 1 C1.67 1.66 1.34 2.32 1 3 C0.34 3 -0.32 3 -1 3 C-1.33 4.98 -1.66 6.96 -2 9 C-3.32 8.34 -4.64 7.68 -6 7 C-4.71937515 5.2925002 -3.38232443 3.62626404 -2 2 C-1.34 2 -0.68 2 0 2 C0 1.34 0 0.68 0 0 Z " fill="#91B3D8" transform="translate(166,160)"/>
<path d="M0 0 C-0.33 0.99 -0.66 1.98 -1 3 C-3.31 3 -5.62 3 -8 3 C-8 2.01 -8 1.02 -8 0 C-4.94736336 -0.98120464 -3.05263664 -0.98120464 0 0 Z " fill="#72A1D4" transform="translate(490,27)"/>
<path d="M0 0 C0.33 0.66 0.66 1.32 1 2 C-0.1875 5.0625 -0.1875 5.0625 -2 8 C-4.1875 8.875 -4.1875 8.875 -6 9 C-4.16172132 5.84866512 -2.24027294 2.88035092 0 0 Z " fill="#8AB1D4" transform="translate(128,204)"/>
<path d="M0 0 C0.66 0 1.32 0 2 0 C1.875 1.875 1.875 1.875 1 4 C-1.9375 5.3125 -1.9375 5.3125 -5 6 C-5.66 5.67 -6.32 5.34 -7 5 C-2.25 2 -2.25 2 0 2 C0 1.34 0 0.68 0 0 Z " fill="#91B5D4" transform="translate(246,95)"/>
<path d="M0 0 C1.2065625 0.0309375 1.2065625 0.0309375 2.4375 0.0625 C2.7675 1.0525 3.0975 2.0425 3.4375 3.0625 C0.7975 3.7225 -1.8425 4.3825 -4.5625 5.0625 C-3.31710123 0.08090491 -3.31710123 0.08090491 0 0 Z " fill="#7CA2CA" transform="translate(134.5625,433.9375)"/>
<path d="M0 0 C0.33 1.32 0.66 2.64 1 4 C0.34 4 -0.32 4 -1 4 C-1 5.98 -1 7.96 -1 10 C-2.32 8.68 -3.64 7.36 -5 6 C-4.01 6 -3.02 6 -2 6 C-2 4.35 -2 2.7 -2 1 C-1.34 0.67 -0.68 0.34 0 0 Z " fill="#8BB2D6" transform="translate(63,386)"/>
<path d="M0 0 C1.32 0 2.64 0 4 0 C4 0.66 4 1.32 4 2 C2.04072937 3.7143618 0.04119788 5.38405168 -2 7 C-2.125 4.625 -2.125 4.625 -2 2 C-1.34 1.34 -0.68 0.68 0 0 Z " fill="#7EA8CF" transform="translate(190,172)"/>
<path d="M0 0 C-0.33 1.32 -0.66 2.64 -1 4 C-2.65 4.33 -4.3 4.66 -6 5 C-6.33 4.01 -6.66 3.02 -7 2 C-2.25 0 -2.25 0 0 0 Z " fill="#78A4D5" transform="translate(324,55)"/>
<path d="M0 0 C-2.622514 1.74834267 -3.99484478 2.51529754 -7 3 C-7.66 2.67 -8.32 2.34 -9 2 C-9 1.34 -9 0.68 -9 0 C-5.52176885 -1.15941038 -3.54104422 -0.70820884 0 0 Z " fill="#6894C2" transform="translate(109,426)"/>
<path d="M0 0 C0.33 1.32 0.66 2.64 1 4 C-1.64 4.33 -4.28 4.66 -7 5 C-2.25 1.125 -2.25 1.125 0 0 Z " fill="#88ABD4" transform="translate(255,90)"/>
<path d="M0 0 C2 1 2 1 2 1 Z " fill="#FFFFFF" transform="translate(231,310)"/>
<path d="" fill="#FFFFFF" transform="translate(0,0)"/>
<path d="" fill="#FFFFFF" transform="translate(0,0)"/>
<path d="" fill="#FFFFFF" transform="translate(0,0)"/>
<path d="" fill="#FFFFFF" transform="translate(0,0)"/>
<path d="" fill="#FFFFFF" transform="translate(0,0)"/>
<path d="" fill="#FFFFFF" transform="translate(0,0)"/>
<path d="" fill="#FFFFFF" transform="translate(0,0)"/>
<path d="" fill="#FFFFFF" transform="translate(0,0)"/>
<path d="" fill="#FFFFFF" transform="translate(0,0)"/>
<path d="" fill="#FFFFFF" transform="translate(0,0)"/>
<path d="" fill="#FFFFFF" transform="translate(0,0)"/>
<path d="" fill="#FFFFFF" transform="translate(0,0)"/>
<path d="" fill="#FFFFFF" transform="translate(0,0)"/>
<path d="" fill="#FFFFFF" transform="translate(0,0)"/>
<path d="" fill="#FFFFFF" transform="translate(0,0)"/>
<path d="" fill="#FFFFFF" transform="translate(0,0)"/>
<path d="" fill="#FFFFFF" transform="translate(0,0)"/>
<path d="" fill="#FFFFFF" transform="translate(0,0)"/>
<path d="" fill="#FFFFFF" transform="translate(0,0)"/>
<path d="" fill="#FFFFFF" transform="translate(0,0)"/>
<path d="" fill="#FFFFFF" transform="translate(0,0)"/>
<path d="" fill="#FFFFFF" transform="translate(0,0)"/>
<path d="" fill="#FFFFFF" transform="translate(0,0)"/>
<path d="" fill="#FFFFFF" transform="translate(0,0)"/>
<path d="" fill="#FFFFFF" transform="translate(0,0)"/>
<path d="" fill="#FFFFFF" transform="translate(0,0)"/>
<path d="" fill="#FFFFFF" transform="translate(0,0)"/>
<path d="" fill="#FFFFFF" transform="translate(0,0)"/>
<path d="" fill="#FFFFFF" transform="translate(0,0)"/>
<path d="" fill="#FFFFFF" transform="translate(0,0)"/>
<path d="" fill="#FFFFFF" transform="translate(0,0)"/>
<path d="" fill="#FFFFFF" transform="translate(0,0)"/>
<path d="" fill="#FFFFFF" transform="translate(0,0)"/>
<path d="" fill="#FFFFFF" transform="translate(0,0)"/>
<path d="" fill="#FFFFFF" transform="translate(0,0)"/>
<path d="" fill="#FFFFFF" transform="translate(0,0)"/>
<path d="" fill="#FFFFFF" transform="translate(0,0)"/>
<path d="" fill="#FFFFFF" transform="translate(0,0)"/>
<path d="" fill="#00FFFF" transform="translate(0,0)"/>
<path d="" fill="#FFFFFF" transform="translate(0,0)"/>
<path d="" fill="#FFFFFF" transform="translate(0,0)"/>
<path d="" fill="#FFFFFF" transform="translate(0,0)"/>
<path d="" fill="#FFFFFF" transform="translate(0,0)"/>
<path d="" fill="#FFFFFF" transform="translate(0,0)"/>
<path d="" fill="#FFFFFF" transform="translate(0,0)"/>
<path d="" fill="#FFFFFF" transform="translate(0,0)"/>
<path d="" fill="#FFFFFF" transform="translate(0,0)"/>
<path d="" fill="#FFFFFF" transform="translate(0,0)"/>
<path d="" fill="#FFFFFF" transform="translate(0,0)"/>
<path d="" fill="#FFFFFF" transform="translate(0,0)"/>
<path d="" fill="#FFFFFF" transform="translate(0,0)"/>
<path d="" fill="#FFFFFF" transform="translate(0,0)"/>
<path d="" fill="#FFFFFF" transform="translate(0,0)"/>
<path d="" fill="#FFFFFF" transform="translate(0,0)"/>
<path d="" fill="#FFFFFF" transform="translate(0,0)"/>
<path d="" fill="#FFFFFF" transform="translate(0,0)"/>
<path d="" fill="#FFFFFF" transform="translate(0,0)"/>
<path d="" fill="#FFFFFF" transform="translate(0,0)"/>
<path d="" fill="#FFFFFF" transform="translate(0,0)"/>
<path d="" fill="#FFFFFF" transform="translate(0,0)"/>
<path d="" fill="#FFFFFF" transform="translate(0,0)"/>
<path d="" fill="#FFFFFF" transform="translate(0,0)"/>
<path d="" fill="#FFFFFF" transform="translate(0,0)"/>
<path d="" fill="#FFFFFF" transform="translate(0,0)"/>
<path d="" fill="#FFFFFF" transform="translate(0,0)"/>
<path d="" fill="#FFFFFF" transform="translate(0,0)"/>
<path d="" fill="#FFFFFF" transform="translate(0,0)"/>
<path d="" fill="#FFFFFF" transform="translate(0,0)"/>
</svg>
