<svg id="Layer_1" data-name="Layer 1" xmlns="http://www.w3.org/2000/svg" xmlns:xlink="http://www.w3.org/1999/xlink" viewBox="0 0 1920 2160"><defs><clipPath id="clip-path"><rect x="557.24" y="113.19" width="805.52" height="1933.63" style="fill:none"/></clipPath></defs><g style="clip-path:url(#clip-path)"><path d="M845.55,304.73a589.94,589.94,0,0,0-65,51.86c-7.33,6.68-14.23,13.42-18.83,24.58-6.18,15.14-5.35,31.87-.7,50.47,15.08,60.56,31.78,73.18,90.47,60.77,34.24-7.25,67.84-17.92,96.42-25.64-3.42-24.23-6.26-44.27-9.12-64.3l7.34-1.06c.95,9.21,2.3,18.42,2.74,27.75.49,10.28,3.18,17.67,8,22.52,4.18,4.29,9.61,6.86,26.12,8.12,32.33,2.52,42.74-3.94,64,2.2,11.91,3.4,19.57,8.53,19.22,9.76-.83,2.65-38-15.54-52.82-1.18-7.16,6.94-6.77,19.1-5.67,36.34,1,15.49,3,31.92,8.95,45.93,35.65,84.18,30.45,168.8,4.89,254-5.11,17.08-12.45,33.71-15.45,51.15-1.84,10.6,2.66,22.38,4.33,33.64l7.62-.71,11.38-57.38,2.66.35c-1.59,12-1.64,24.4-5.06,35.76-7,23.44-1.32,43.63,11.15,63.09,24.33,37.85,47.22,76.14,50.55,123.07.34,4.72,1.14,13.83,2.12,32.1,2.28,42.45,2,73.67,1.93,75.48-.51,40.08-45.87,142.18-122.26,264.7,3.25-10.09,8.34-25.23,15.33-43.25,21.54-55.34,35.8-72.86,58.15-121.46,22.77-49.49,34.8-75.71,39.91-114.77a303.08,303.08,0,0,0-5.06-100.82A315.25,315.25,0,0,0,1019,920.86c.19,8.13.61,19.79,1.59,33.77,2.71,38.26,4.06,57.36,9.27,72.53,9.21,26.9,19.8,27.53,44,73.76,6.73,12.77,11.59,23.57,14.67,30.54-5.11-6.77-12.52-16.71-21.25-28.92-38.75-54.19-44.35-70.44-47-80a188.88,188.88,0,0,1-6.13-38c-.52-12.87.63-24-.79-46.46a130.27,130.27,0,0,0-1.61-14.61,121.29,121.29,0,0,0-7.73-26.43l-4.08-5c-5.48,93.6.39,186.09,27.41,274.79a192.13,192.13,0,0,0,12.42-129.18q-11.17-61.4-22.42-122.85c16.38,41.34,42.21,123.66,28.56,225.48a437.62,437.62,0,0,1-36.16,124.62l2.44-46.18a294.37,294.37,0,0,0-44.6,53.17c-25.07,38.26-25.53,58.52-25.46,64.63a82.66,82.66,0,0,0,3.2,21.5,256.23,256.23,0,0,0,75.81-143.11c-.29,12.92-2.18,53.62-19,85a263.91,263.91,0,0,1-23.11,34.8c-8.53,10.62-15.35,18.19-15.35,18.19-11.42,12.62-12.23,11.69-13,14.56-3,11,9.78,18.6,21.17,46.74,1.49,3.73,2.45,6.86,3.23,8.81a39.7,39.7,0,0,1-4.89-2.53c-15-8.65-21.45-24.55-24.23-33.71a155,155,0,0,0,8.21,56.32c6.65,19.49,16.48,37.53,27.29,48-5-25.08-9.78-49.26-14.67-73.43l17.73-26.7a84.7,84.7,0,0,0-2.64,18.55c-.59,20.51,6.67,33.31,12.52,48.75,2.44,6.61,14.5,39.62,11.59,76.44-2,25.51-10.56,45.1-12,44.74-1.86-.42,10.49-33.38,6-75.7-4.4-41.79-23.28-75.13-25.6-74.32-1.52.53,3.47,15.87,9,44.36a632.55,632.55,0,0,1,10.69,86.36c4.47-6.56,5.82-8.56,9.12-13.43-.61,7.93-.39,12.62-1.42,17.29-6.16,27.33-1.69,32.55,23.79,37.37,29.18,5.51,57.86,13.78,86.67,21.23,30,7.77,38.09,33,42.81,59.93,4.31,24.56-4,44.77-22,61.38-18.86,17.46-24.46,18.29-34.24,34.29-4.33,7.22-10,16.76-8.53,28.32.88,6.76,6.48,13.78,17.63,27.53a419.22,419.22,0,0,0,28.36,31.47c7.22,7.29,12.55,12.24,13.53,13.15,11.32,10.75,24.45,38.53,33.89,111.57a29.19,29.19,0,0,1-6.38-5.78,34,34,0,0,1-7-15.7c-3-15.57-8.34-30.54-11.76-46-3.13-14.2-8-15.36-64.85-86.5-6.24-7.8-14.94-19-14.4-33.59.34-9.77,4.67-16.84,9.78-24.86,10-16,14.89-19.91,37.85-39.37,16.85-14.28,23.5-32,19.81-53-3-17.11-6.78-34.27-19.17-45-3.82-3.3-8.07-5.57-18-9-35.92-12.37-54.06-7.07-82.23-16.79a128.88,128.88,0,0,1-31.23-16,213.87,213.87,0,0,0-11.2,22c-1.69,3.84-11.57,26.62-13.74,42.9-1.49,11.48.68,20.54,24.45,69.35,24.31,50,30.86,58.7,33.11,79.62,2.72,25.24-3,48.55-5.23,48.48s.14-19.36-4.67-44.19c-7.58-39-23.36-45.43-42.43-95.47-10.27-27-16.11-42.9-14.13-64.17,2.44-27,14.67-31.22,21.69-57,7.87-28.64-.61-56.38-17.56-111.85-13.94-45.65-20-54.08-29.17-93-4.6-19.51-4.72-40.71-3.62-61,.85-15.88,3.47-33.44,11.07-46.76a247.22,247.22,0,0,1,43.63-57.09c28.56-27,35.92-56.75,25.24-94.68-22.84-80.76-25.78-163.89-19.91-247.32A228.61,228.61,0,0,1,1005.28,834c27.41-83.53,44.38-167.24,15.18-254.53-3.47-10.4-15.58-36.16-17.12-72.45a194.88,194.88,0,0,1,2.45-39.72l-38.2,4c-6.75,31.69-1,50.29,5.94,61.55,6.17,10.09,11.57,11.48,21.6,24.43a152.4,152.4,0,0,1,23.5,49.38c9.31,35.61-5.5,67.23-13.35,90.85-11,33.14-19.27,83.69-3.75,157-18-68.75-13-118.61-4.4-152.05,6.78-26.35,24-74.55,6.53-108.26-6.85-13.25-16.82-28.77-16.82-28.77-14.67-22.71-20.18-26.37-25.21-37.48s-8.86-27.76-3-53.42l-8.56-1.14a8.54,8.54,0,0,0-4.28,1.59c-9.32,7-.22,34.27,1.08,38,4,11.53,9.26,19.68,16.55,30.66s12.23,16.4,15.21,20.64c11.79,16.28,12.47,36.72,11.13,65.62-2.33,49.69-7.75,63.44-10.15,98.62-3.47,51.45,3.69,88.15,3.74,88.15s-14.06-106-4-153.49c0,0,6-28.19,3.79-52.36-.73-7.83-2-15.75-2-15.75-.78-4.74-1.54-8.38-1.71-9.24-2.86-13.17-13.62-24.78-15-26.27-7.53-8.3-18.73-28.34-35.58-77.42l-4.57,1.46-11.2,3.59a5.54,5.54,0,0,1,1.46-1.77,5.63,5.63,0,0,1,2-1c9-1.29,24.26,33.19,28.66,67,1.83,14.16,0,14.56,2,33.64a304.28,304.28,0,0,0,9.34,48.63c15.7,59.68,5.5,105.43,21,165.47,5.07,19.56,4.77,41.49,15.09,58.7,1.15,1.94,5.82,9.21,4.4,17.66a20,20,0,0,1-2.81,7.37q-9.71-27.93-16.68-56.75c-12-49.59-7.94-60.39-19.56-133.75-10.05-63.52-14.79-66.1-18.76-107.64a254.74,254.74,0,0,0-6.5-40.37A242.65,242.65,0,0,0,911,487.86L875,497c10.81,49.34,11.27,76,9.51,91.4-1.68,14.49,0,29.66-4.54,43.51-1.79,5.63-4.75,13.07-1.62,20.19,2.45,5.58,6.68,6.11,13.55,11s14.38,16.48,28.63,39.11c4.9,7.9,7.49,11.86,8.73,14.14,20,36.41-3.54,64.17,12.89,104.55,1,2.52,0-.28,20.64,37,11.27,20.37,16.9,30.54,17.63,32.15,19.56,43.23,4.89,89.74,3.38,94.49-8.59,26-25.09,48.78-28.57,47.09-5.64-2.73,41.57-61.4,25.9-122-11.52-44.41-52.4-72.75-54-115.81-.39-10.65-1.62-21.27-1.47-31.92.22-17.06,2-27.76-3.74-41.34-.25-.58-2.2-3.93-6.07-10.65a266.11,266.11,0,0,0-28.46-40.37c-3.13-3.61-5.09-5.63-7.34-5.25-4.89.86-8.6,13.78-5.45,23.19,2.45,7.57,9.25,9.11,19.25,15.14,18,10.93,29.34,25.11,50.18,51.18a148.49,148.49,0,0,1,9.78,12.62c16.7,27.51,5.28,56.4,1.66,92.29-5.33,52.76,11.35,69.42,6.75,131.85-1,13-3.52,37.53-20.79,50.48a40.62,40.62,0,0,1-9.12,5,249.48,249.48,0,0,0,20-65.61C963,913.19,938.22,884.88,948.4,817a90.06,90.06,0,0,0,.17-34c-6.41-31.47-30.72-52.64-33.11-54.66-18.27-15.52-25.9-20.19-25.9-20.19-12.22-6.46-20-13.37-19.56-29.37.22-5.91-6.63-15.14-12.37-17.67-11.84-5-18.54-11.78-17.68-25.43,1.27-20.7,3.79-41.44,3.08-62.08-.61-17.67-5-35-7.76-52.52,20.25,18.67,14.21,42.4,12.09,65.61-1.37,14.82-2.45,29.71-2.74,44.6-.25,15.69,9,22.28,24,23.57,8.26-52.37,17.67-103.62-.47-156.19l-37.93,6.69c2.2,6.33,4,11.43,5.77,16.53-27.11-26.83-58.39-17.67-89.4-11.06l.44.26L772.75,496c-8.34-13.34-18.24-27-25.87-41.91-11-21.58-17.12-43.69-1.06-66.57,4.14-5.91,5-14.72,6-22.39,2.59-21.22,39.64-78.58,60.72-99.2,44-43.21,161.39-58,282.78,1.64-128.68-45-250.36-32.43-307.75,38.89a159,159,0,0,0-28.88,57.33ZM768.93,471l-22-69.83C740.22,431,751.4,450.77,768.93,471Z" style="fill:#f7faf1"/><path d="M1057.43,468.58c30.5,1.11,61,2.8,91.44,2.75,4.32,0,11.07-7.74,12.57-13.14,7.19-26.07,2.76-52.44-.2-60.14-7-18.15-13.42-19.28-26.9-40.18-20.76-32.43-16.8-61.22-29.34-63.09a13.76,13.76,0,0,0-6.33,1.11,14.11,14.11,0,0,0-5.17,3.94,14,14,0,0,0-2.44,8.56c0,20.18-4.89,82.24-8.54,102.73-2.59,14.39-9.26,34.73-28.29,57.56a189.09,189.09,0,0,0,21.08-66.09c4.33-36.52-.15-96.35,11.32-108.94a27.55,27.55,0,0,1,12.42-7.93,21.81,21.81,0,0,1,9.1-.2c19.83,4.34,17.12,37.86,40.84,78,14.67,24.55,24.45,26.72,28.29,46.28a77.27,77.27,0,0,1-4.77,42.6c6.61-4.57,24.29-18.1,27.81-40.38a57.33,57.33,0,0,0-5.48-33.44c-12.77-27.35-31.79-51.66-48.1-77.14-1.86-2.86-5.21-4.72-7.87-7-20.55-17.66-43.56-31.59-64.73-48.32-37.47-29.63-82.58-31-125.21-6.54a639.78,639.78,0,0,0-72.65,46.54c-18.68,13.52-46.6,33.54-81.65,57.76V339.6A649.13,649.13,0,0,1,893,263.89c80.18-50.22,116.79-48.45,127-47.24,17.56,2.12,37.46,5.25,51.21,15.3,10.12,7.39,60.72,27.76,101.19,85.32,23.5,33.39,42.37,60.24,37.7,95.54-4.13,31.29-24.45,52.54-35.11,62a18,18,0,0,0,12,5.38c14.55-.23,24.63-25.52,27.8-38.74,6.26-26-3.81-49-9-58.77A70,70,0,0,1,1224,421.44c2.67,22.51-7,39.62-11,46.76a85.51,85.51,0,0,1-14.3,18.78,207.23,207.23,0,0,1,48.91,10.37c6.13,2.17,15,5.68,25.84,3.48a39,39,0,0,0,18.27-9.16c27.83-26.19-15.19-119.56-21.86-134-2.3-5-12.62-27.38-16-26.17-2.59.9.78,15,3.2,35.33,2.25,18.72,5.48,45.9,1.08,69.67-2.45,13.08-8.95,34.88-29.91,58.95l-4.25-.83c16.55-20.36,22.77-38.71,25.41-51.13,7.33-33.86,1.12-85.07-4.33-99.25a21.19,21.19,0,0,1-1.35-11.31c.81-4.44,3.72-10.75,7.49-11.83,13.22-3.84,40,56,43,62.81,10.86,24.56,14.06,39.55,15,44.06,3.74,18.7,6.74,34.75-.22,51.89a63,63,0,0,1-20.06,25.89c13.26,6.26,20.89,4,24.29,2.52,21.64-10.09,16.21-59.63,15.55-65.61s-2.72-21.2-12.72-44.14c-5.91-13.52-14.89-30.28-58-83-21.13-25.76-40.59-48.48-40.59-48.48-20-23.31-31.26-35.73-43.58-56.55a258.25,258.25,0,0,1-16.55-33.06c51.35,66.8,90,112.35,118.86,144.35a235.62,235.62,0,0,1,47.08,72.68c16.21,40.78,13.52,70.66,12.44,79.7a142.45,142.45,0,0,1-7.11,30.53,53.55,53.55,0,0,0,19.93-18.77c3.71-6.14,12.22-23.37,2.32-59.92-9.15-33.46-23.11-39.56-51.94-87.61-17.12-28.5-36.19-56-50.45-85.81-21.15-44.34-54-61.14-100.57-58.62-43,2.32-116.82,5.25-159.15-.63-25-1-66.93-18-106.1-34.47a605.8,605.8,0,0,0,273.27,22.71,44.1,44.1,0,0,1-5.51-6.23c-1.54-2.15-2.86-4.34-4.18-6.54l-.36.4c14.82,6.41,29.19,16.66,44.5,18.35,25.53,2.85,39.45,19,51.48,38.26,35.33,56.5,70.91,112.88,104,170.82A132.61,132.61,0,0,1,1362.83,457c.47,22.26-5.6,38.44-16.26,48.84-16.14,15.69-40,13.35-65.83,10.42-31.52-3.56-79.71-16.13-115.51-30.54-6.53-2.52-23.14-9.56-38.08-2.22a35.54,35.54,0,0,0-10.68,8.46c-18.81,20.34-17.68,51-17.44,57.66.71,19.58,6.85,34.5,11.4,45.43,7.89,19.25,12.22,19.53,16,32.8,6.56,23.09-.66,44.34-3.57,53-8.31,24.53-19,26.92-36.68,56.9-11,18.76-16.38,33.92-22.42,51.06-12.94,36.82-22,62.51-16.36,92.18,2.08,11,9.1,23.88,23.13,49.59,33.85,62.06,40.86,55.52,46,78.23,6.7,29.88-5.38,41.32,1.89,95.52,1.39,10.3,3,18.68,4.15,24.1a70.8,70.8,0,0,1-7.33-10.09c-20-33.59-.37-63.27-9.46-102.64-4.33-18.67-9.15-13.65-32.75-56.75-21.4-39.09-32.11-58.65-35.94-80.23-11.55-64.68,30.68-145.2,57.29-173,4.06-4.24,20.59-20.64,24.21-44.79a68.67,68.67,0,0,0,.19-18.45c-2.29-17.06-10.49-25.24-18-39.22A118.55,118.55,0,0,1,1087.05,558c-2.45-29.25,8.75-52.64,12.4-60.06a116.39,116.39,0,0,1,8.58-14.69c-4.21-2.52-11.91-6.33-19-3.58-9.48,3.66-12.69,17.06-14.67,29.57a278.07,278.07,0,0,0,.34,80.76c4.89,34.19,11.35,80-.71,127.06-6.43,25.24-11.59,25-26.67,69.8a676,676,0,0,0-20.3,73.82,391.64,391.64,0,0,1,12.47-77.88c11.18-42.12,18.39-40.55,25.68-70.94,12-50.29,1.37-104.4-1.5-145.56-2.44-35.33-3.39-55,9.32-86.61Z" style="fill:#f7faf1"/><path d="M1234.16,2032.58a114,114,0,0,0,12.37-42.9c.81-9.89,2.45-47.34-19.56-73.61-16.46-19.64-26.34-26.63-26.34-26.63-6.74-4.79-14.45-9-16.89-17.81a32,32,0,0,1-.15-13.78,21.51,21.51,0,0,1,4.89-11.28c5.16-5.35,13.5-5.83,22-5.78,2,0,3.91-.94,1.76-.38,1-25.44,2.45-45.78,3.62-58.72,4.3-51.23,9-70.84-2-94-4.89-10.1-10.44-16.18-19.88-26-19.36-20.19-47.19-48.45-83.41-82.75a278.73,278.73,0,0,1,69.13,49c23.06,22.36,46,44.64,52.31,78.76,2.15,11.58.81,16-1.86,54.81-2.18,31.85-3.25,57.59-3.81,73.94,23.86-9.08,48.9-50.14,49.66-80.25.27-9.71,2.45-25.59,3.91-57.69.44-10.34.52-16-1.2-23-4.3-17.89-16.13-29-26.09-38.08-48.15-43.73-72.7-65.61-96.15-64.1-6.14.38-16.31,2.12-24.82,3.59-16,2.72-29,5.78-37.63,8A141.28,141.28,0,0,1,1136.2,1564c9.1-2.53,18-4.9,29.49-3.41,10.3,1.31,19,3.78,26.63,10.09,25.41,21,50,43.08,74.61,65.16a52.4,52.4,0,0,1,13.55,17.09c7.33,13.5,7.7,26.52,8.11,52.06a392.59,392.59,0,0,1-1.85,43.51,230.29,230.29,0,0,1-4,30.28c-5.47,23.85-23.79,67.15-51.59,71.06-12.23,1.74-23.33-4.69-33.45,3.49-1.23,1-6.24,5-6.22,10.47s5.26,9.39,11.64,14.43c7.78,6.16,14.68,13.58,22.67,19.36,22,15.75,41.43,66.09,26.17,106.87A82.93,82.93,0,0,1,1234.16,2032.58Z" style="fill:#f7faf1"/><path d="M728.78,517.62c-6,5-15.31,12.41-27.09,20.79-26.22,18.65-39.89,28.16-59.82,31.85-9.78,1.79-22.15,4.09-35.6-1.26-20-8-29-27.76-37-45.43-6.28-13.8-13.37-54.33-11.86-106,.57-18.35,14.14-38.69,26.71-53.8,55.34-66.35,112.26-131.23,169-196.29,8.47-9.69,37.91-31.79,60.16-42.49,1.54,4.61,11,1.46,10.39,1.76C751.94,165.22,686.94,264.17,637.45,322a300.62,300.62,0,0,1-34,34.93c-32.74,27.58-45,62.56-38.34,105.06,3,18.87,2,35.33,10.12,54.83,6.41,15.32,15.5,37.08,36.51,45.25,16.87,6.56,33.28,1.21,41.57-1.46,15-4.9,19.81-11.56,41.21-24.81A297.5,297.5,0,0,1,728.78,517.62Z" style="fill:#f7faf1"/><path d="M916.73,1464.57c-4.13,1.16-11-12.26-12.81-15.77-24.46-46.49-97.6-101-84.71-127.44,2.66-5.48,6.89-7.4,18.63-23.27a98.82,98.82,0,0,0,8.95-14.81c5.72-11.59,19.27-38.89,10.86-64-8.73-26.09-31-21.52-39.13-46.66-7.94-24.53,6.17-53.88,21.72-69.78,10.32-10.57,12.64-6.36,39.56-23.62,21.87-14,26.07-20.36,53-39.92,12-8.71,24.64-16.43,37.61-25-9.54,18.45-24.34,33.14-41.16,47-13.28,11-26.29,23.42-36,37.68a57.32,57.32,0,0,0-9.14,22.39c-4.13,23.84,11,44.77,15.31,50.85,9.78,13.68,15.6,13.8,23,28.14a81.88,81.88,0,0,1,8,25.23c5,31.7-10.81,51-19.76,97.51-4.43,23.12-8.58,45.91-2.05,73.19,4.15,17.38,9,21.35,16.23,42,10.59,30.06,12.23,54.94,13.31,74.24,4.54,74.1-23,89.67-22.84,166.36,0,53.68,13.67,96.2,9.24,97.31-2.81.73-10.17-15.87-14.67-31.47C890.12,1676.12,925.17,1625,928.32,1524c.61-20-.44-28.27-1.08-32.51-5.6-37-21.51-49-29.12-87.54a122.27,122.27,0,0,1-1.83-31.44c2.86-49.11,11.81-77.66,11.81-77.66,5.67-18.09,11.29-28.61,11.64-46.25.44-22.56-8.12-41.24-15.63-53.68a152.27,152.27,0,0,1,3,33.61c-1.07,49.24-25.94,64.91-30.95,109.45-4.9,43.11,13.2,74.47,9.61,75.71-3.11,1-16.44-22.11-19.76-50-2.74-22.94,2.22-41.33,7.33-59.43,9.44-33.66,16.12-30,22.26-57.84.53-2.52,10.68-50.27-3.92-72a100,100,0,0,1-8.7-15.14,109.64,109.64,0,0,1-6.92-19.86c-2.69-12.62,4.67-34.27,20.59-55.24-13.87,4.44-44.83,16.6-61.38,45.42-3.69,6.39-7.8,13.73-7.34,23.32,1,18.85,19.2,36.39,22.82,39.87a52,52,0,0,1,13.33,16.66,48.67,48.67,0,0,1,3.88,13.25c4.26,28.19-10.68,59.51-10.68,59.51-15,31.49-26.27,27.58-28.47,41.86-6.67,43.18,93.1,99.13,91.17,130.75C919.91,1457.1,919.44,1463.81,916.73,1464.57Z" style="fill:#f7faf1"/><path d="M1124,1574.6l-18.44,13a163.08,163.08,0,0,1,41.77,35.33c7.33,8.8,26.89,31.84,33.47,64.15,6.73,33-5.74,47-12.81,98.42a399.35,399.35,0,0,0-2.69,81.71,212.8,212.8,0,0,1-7.65-80.6c4.62-43.91,22.76-72.41,9.26-109.45-2.44-6.46-5.45-12-11.64-23-10.73-19.08-22.35-40.75-42.45-54.33a101.33,101.33,0,0,0-34.23-14.64c-36.44-8.48-60.53-54.3-67.81-93.87-6-32.81,2.69-59.79,10.34-83.28,4.53-13.88,13.48-31.09,31.23-64.88,27.39-52.17,31.13-54.09,37.71-73.92a219.89,219.89,0,0,0,11.42-71.92,209.52,209.52,0,0,0-12.84-68.49,76.12,76.12,0,0,1,11.49,12.36c27.63,37.33,14.06,91.89,8.88,112.71a216.52,216.52,0,0,1-14.14,39.67c-11.47,24.4-19.76,30.28-33.62,53a282.27,282.27,0,0,0-28.86,65.72c-9.29,30-15,48.4-12.56,72.25,3.49,34.44,23.91,83,63.57,92.69C1096.1,1580.28,1110.45,1575.68,1124,1574.6Z" style="fill:#f7faf1"/><path d="M1213.55,195.08c-74.66-65-120.24-54.59-164.14-57.82-49-3.58-97.81-11.81-146.72-14.18-33.23-1.59-66.73,3.4-94.83,5,26.9-15.75,62.75-16.41,98.77-13.63,61.53,4.74,123,10.7,184.48,15.95C1122.87,133.12,1171.19,134.86,1213.55,195.08Z" style="fill:#f7faf1"/><path d="M965,1827.34c-32.48-19.84-47.15-49.11-51-85l13.4,31.93a164.84,164.84,0,0,0,10.47,18.85c4.89,7.34,9.46,11,35.6,29.73,22,15.82,24.21,17.18,26.05,21.9,6.14,15.92-6,33.46-1.62,36.24,2.74,1.72,9.42-3.89,13.33-8.28,17.44-19.48,13.23-51.48,10.86-64.27,3.69,7.79,11.79,27.76,6,50.77-1.72,6.71-5.63,22.16-19,29.91-1.51.88-13.27,7.57-18.83,2.87-7.33-6.26,7.61-23.64.69-37.32-9.51-18.78-48.52-7.14-62.9-30.28a41.61,41.61,0,0,0-9.17-12.07c-9-7.72-15.79-5.2-22.69-9.49-14.45-9-2.44-31.09-16.82-48.63-8.85-10.82-16.78-6.51-42.58-23a179.56,179.56,0,0,1-19.73-14.61c56.07,9.36,72.65,24.83,76,38.51,2.64,10.7.51,33.69,10.44,39.62a51.2,51.2,0,0,0,9.46,4.57c5.41,1.72,8,1.19,11.23,3.66,2.22,1.72,2.86,3.38,4.89,6.89C932.14,1815,936.17,1820.65,965,1827.34Z" style="fill:#f7faf1"/><path d="M842.73,1732.35c-9.78-3-32.62-11.84-48.61-35.33-19.56-28.62-24.45-72.78-3.57-99.53a81.46,81.46,0,0,1,43.55-27.76,61.45,61.45,0,0,0,6.14-1.16c15.16-3.66,36.53-2.25,44-12.12,13.57-17.66,20-41.79,26.89-64,3.43-10.93.88-23.77,1.84-35.66.27-3.48,3.25-6.74,6.53-9.31a227.52,227.52,0,0,1-7.83,68.49c-12,43.21-41.69,98-58.25,122.75a104.34,104.34,0,0,0-16,36.41,98.57,98.57,0,0,0-2.27,19.59,58.72,58.72,0,0,1-2.59-21c.92-15.14,7.7-24.45,18.51-42.42,16.92-28.16,25.33-42.35,22-48.48-5.13-9.61-28-7.75-42.69-2.19-27.17,10.24-37.54,37.22-39,41.13-.66,1.84-12,34.14,3.35,58.88,6.26,10.09,11.88,10.77,31.4,32.17C833.51,1720.87,839.07,1727.68,842.73,1732.35Z" style="fill:#f7faf1"/><path d="M648.3,567.33c-.68,1.29-34.23-6-54.33-34.85-22.43-32.1-15.16-72.15-12.94-84.41a144.41,144.41,0,0,1,23.4-55.37c16.31-24.81,25.78-25.24,49.3-49.94,8.22-8.66,14.67-16.56,85.81-131,8.09-13,8.63-14,10.56-16.33,12.67-15.34,40.84-34.54,119.83-41.33,1.93-.18-78.26-2.68-113.69,49.26-3.81,5.6-1,2.8-12.23,23.54-16.35,30.29-30.9,52-52.84,84.47-11.66,17.26-17.61,26-22.59,32-20.13,23.9-29.59,25.23-45.19,42.62-6.39,7.07-27.66,31.32-34,68.14-1.79,10.32-7.34,42.09,8.68,70.66C615.66,556.48,649,566,648.3,567.33Z" style="fill:#f7faf1"/><path d="M1036.31,1382.3c27.43-17.06,66.68-45.1,96.47-82.67,8-10.1,15.18-20.72,19-35.61,5.33-20.67,2.23-42.45-6.5-64.93-10.79-27.76-22-55.17-31.16-84.31,1.49,1.79,3.28,3.45,4.89,5.19a49.74,49.74,0,0,1,3.82,5.63C1165.67,1200,1166.2,1242,1166.2,1242,1166.89,1294.58,1113.24,1352.8,1036.31,1382.3Z" style="fill:#f7faf1"/><path d="M1163.71,1782.27c1.08,0-.15,24.4,3.74,70.66,2.45,29.85,4.7,40.15,12.23,49.84,9.44,12.06,17.73,11.1,24,23.62,8.49,16.93,2,36.69.54,41.31-4.48,13.78-14.31,28.14-25.46,44.44-5.3,7.77-8,11.1-6.92,15.14,2.45,9.47,24.46,14.06,40.57,9.54,27.34-7.57,37.24-41.44,38.44-45.73.15,1.69,2.45,29.91-18.7,46.29a48.12,48.12,0,0,1-35.76,9c-13.32-1.67-32.1-9.56-33.45-21.1-.32-2.52.52-3.58,8.71-20,8.58-17.19,7-14.89,10.27-20.82,8.92-16.46,11.54-17.09,13.94-25.64,1.32-4.72,3.74-13.33.88-22.21-3.62-11.38-12.84-13.73-20.81-22.23-4.89-5.23-10-13.48-13.36-45.2C1157.69,1822.79,1162.32,1782.19,1163.71,1782.27Z" style="fill:#f7faf1"/><path d="M698.38,397.12c3.89-8.86,22.67-52.57,10-65.39a5.3,5.3,0,0,0-3-1.84C695.89,328.7,687,364.81,668.5,407a498.62,498.62,0,0,1-23.35,46.43c-12.45,16.83-24.77,39.65-19.2,61.73,6.87,27.18,37.56,40.38,36.15,42.42s-25.63-6.54-37.57-29a65.72,65.72,0,0,1-6.82-32c.78-35.13,24.46-43.23,41.35-93.09,5.16-15.15,4.77-19.71,11.84-37.63,7.58-19.23,18.24-45.43,32.11-45.43a14.88,14.88,0,0,1,10,4.77C723.6,336.57,716.8,365.34,698.38,397.12Z" style="fill:#f7faf1"/><path d="M938.84,402.77C919,364,902.35,334.63,892.64,319c-13.32-21.27-22.18-29.92-24.74-38a10.11,10.11,0,0,0-3.67-5.47,12.06,12.06,0,0,0-6-1.49,12.32,12.32,0,0,0-5.93,1.69c-9.39,6.79-1.37,28.31,1.22,51.68,5.06,45.6-15.06,57.21-21.08,127.82a394.74,394.74,0,0,0-1.32,42.68,166.82,166.82,0,0,1-5.35-42.15c.27-53.95,27.58-82.32,18.14-131.22a117.51,117.51,0,0,0-4.08-15.4c-1-2.87-8.05-25.23,3.57-39.49,2-2.53,6.8-8.35,14.23-8.43,6.92,0,12,6.08,14.4,9,31.79,38.61,62.63,110.33,69.5,119.17,2.62,3.38,3.3,6.26,4.62,12a1.67,1.67,0,0,1,0,1.34C945.1,404.53,940.3,403.17,938.84,402.77Z" style="fill:#f7faf1"/><path d="M1146.1,168.53c-60.23,0-233.72-11.43-293.95-11.43,0-2.2,17.8-1.44,17.8-3.64,19.86,0,136.7,4.8,156.5,4.82,25,0,48.42,2.9,73.36,4,15.38.71,30.62,4.34,45.93,6.64Z" style="fill:#f7faf1"/><path d="M746.68,511.38,729.17,517c-4.89-10.1-8.73-20.19-14.52-29C696.38,460.63,693,430.3,696.4,398.3c3.08,17.39,3.92,35.63,9.78,51.94,7.34,20.19,18.66,39.11,29.08,58,1.39,2.52,7.63,2.2,11.71,3.25Z" style="fill:#f7faf1"/><path d="M815.37,1703.93l21,10.5c-1.25-13.55-2.44-25.86-3.52-38.18l2.91-.28c2.1,17,4.21,33.94,7.07,57.11l-27-29.58Z" style="fill:#f7faf1"/></g></svg>