<svg id="Layer_1" data-name="Layer 1" xmlns="http://www.w3.org/2000/svg" xmlns:xlink="http://www.w3.org/1999/xlink" viewBox="0 0 1920 2160"><defs><clipPath id="clip-path"><rect x="439.1" y="1135.53" width="319.46" height="766.85" style="fill:none"/></clipPath></defs><path d="M1910.53,37.68c0,.09,0,.18-.07.28l-2.79,15.5s0,0,0,.07c-2.27,10.12-5,21.82-6.88,28.09-1.32,4.62-2.25,9.12-3.83,13.86-1.69,5.21-4.83,15.3-6.55,20.64-2.24,6.2-6.5,17.53-8.85,23.73l-1.43,3.34-2.88,6.68c-1.83,4.22-3.66,9.19-5.7,13.35-2.44,5-6.75,14.76-9.52,19.7-2.19,4-5.63,10.51-7.84,14.51-3.5,5.75-7,11.59-10.58,17.3l-8.4,12.27a327.2,327.2,0,0,1-62.25,66c-16,12.86-33.52,24.66-52.9,33.6-19.39,9.12-40.27,15.34-61.23,21.2-63.69,16.77-125.55,38.82-183.83,66.61-18.86,8.9-39.52,18.89-57.78,28.47-47.5,24.78-91.66,54.87-127.37,91.63q-11.8,11.9-22.23,24.7a370.7,370.7,0,0,0-46.27,72.69c-.17.31-.34.62-.5.94.24-.86.47-1.73.67-2.59,2.4-9.17,4.4-18.44,6-27.75.33-1.87.63-3.74.92-5.61a0,0,0,0,0,0,0q2.46-15.95,3.38-32c.11-1.87.2-3.74.28-5.61.05-1.51.11-3,.15-4.51q.4-13.31-.19-26.61a337.39,337.39,0,0,0-3.73-36.56c-.33-2.11-.66-4.21-1-6.31-.41-2.34-.83-4.67-1.31-7-.6-3.11-1.27-6.21-2-9.3,0-.12,0-.24-.08-.37-.08-.36-.17-.71-.26-1.07a3,3,0,0,0-.07-.32c-.07-.34-.16-.69-.25-1a1.77,1.77,0,0,0-.08-.33c-.08-.38-.17-.75-.26-1.11,0-.14-.07-.28-.11-.42-.09-.37-.18-.73-.28-1.09a1.8,1.8,0,0,0-.08-.35c-.08-.36-.17-.71-.27-1.07a3.31,3.31,0,0,0-.12-.45c-.09-.37-.18-.74-.28-1.1,0-.17-.08-.32-.13-.49-.09-.33-.18-.67-.26-1,0-.16-.09-.32-.14-.49-.1-.39-.2-.78-.32-1.16,0-.23-.11-.46-.18-.68l-.21-.77c-.1-.37-.19-.73-.31-1.1s-.16-.58-.25-.86-.2-.75-.32-1.12-.15-.56-.24-.83c-.14-.54-.3-1.06-.47-1.59a4.74,4.74,0,0,0-.15-.5c-.23-.8-.47-1.59-.71-2.37-.07-.24-.15-.49-.23-.73-.42-1.34-.83-2.67-1.27-4q-3.64-11.21-8.15-22.17a274.52,274.52,0,0,0-38-64.78,252.9,252.9,0,0,0-49.67-46.86l-.66-.48c-2.2-1.57-4.44-3.11-6.7-4.62-2.73-1.8-5.56-3.48-8.34-5.22l-.08-.05-.7-.43-3.41-2.1c-1.4-.84-2.87-1.59-4.31-2.39l-4.67-2.56-.18-.1L1088,288.7c-3-1.47-5.94-2.87-8.91-4.31l-2-1-.51-.25-1.91-.91-4.58-1.94c-2.39-1-4.8-2-7.2-3l-.63-.26-1.33-.55-9.35-3.45-2.37-.87-.7-.26c-.54-.2-1.07-.39-1.62-.56l-4.75-1.52q-3-1-5.95-1.87l-.74-.23c-4-1.2-8-2.35-12-3.42l-.55-.15q-5.87-1.56-11.77-2.91l-.28-.07c-2.44-.55-4.88-1.09-7.34-1.6l-9.83-1.93c-1.43-.3-2.86-.53-4.29-.76l-.33-.06-.33-.05-4.95-.8c-3.47-.62-7-1.11-10.47-1.58l-.73-.09c-2.87-.37-5.74-.73-8.62-1.12l-5.28-.55-.38,0-4.31-.44-5-.5-3.21-.24h0l-1.71-.13c-3.33-.23-6.67-.53-10-.72h-.21l-9.81-.49-4.64-.16h-.26c-4.64-.15-9.3-.27-13.94-.32h-.44c-4.48-.05-8.94-.07-13.42,0h-.52c-2.3,0-4.59.07-6.88.12l-6.16.17-.58,0c-4.23.12-8.46.29-12.68.48l-.61,0q-6.33.28-12.66.68l-.63,0q-6.21.38-12.42.84l-.56,0q-6.06.47-12.12,1l-.47,0q-6.22.57-12.43,1.23a2.85,2.85,0,0,0-.41,0c-2.69.28-5.39.59-8.08.9l-4.15.47a3,3,0,0,0-.31,0q-6.15.71-12.28,1.49l-.18,0q-6.18.78-12.36,1.63h0q-5.16.7-10.32,1.44c-13.14,1.87-26.28,3.8-39.42,6s-26.17,4.79-39.16,7.68S660,280,647.24,283.67Q609,294.42,572.11,308.85c-24.58,9.55-48.53,20.21-72.14,31.46s-46.83,23.16-70.1,34.89-46.55,23.34-70.58,33.63C336.78,418.48,313.67,427,289.78,433a1.41,1.41,0,0,1-.22.06c-1.4.34-2.79.68-4.2,1a318.29,318.29,0,0,1-79,8.63,349.1,349.1,0,0,1-78.71-10.8l-9.58-2.54c-3.18-.91-6.31-1.9-9.47-2.84l-4.74-1.45-4.66-1.6c-3.11-1.1-6.24-2.12-9.33-3.26q-18.46-6.88-36.12-15.45A431,431,0,0,1,0,373.44v1479H1920V0Z" style="fill:#c7e1ac"/><rect y="1574.68" width="1920" height="585.32" style="fill:#c7e1ac"/><path d="M1235.51,550c0,1.49-.1,3-.16,4.49-.08,1.87-.17,3.73-.28,5.59q-.9,16-3.37,31.93v0c-.29,1.86-.6,3.74-.92,5.6q-2.38,13.92-6,27.65c-.2.86-.43,1.72-.67,2.58,0,0,0,.1,0,.15h0c-.38,1.46-.79,2.93-1.2,4.4l-.15.48h0l-2.52,8.33-3,8.75c-2,5.83-4.37,11.58-6.84,17.26a316.77,316.77,0,0,1-16.9,33.2,360.16,360.16,0,0,1-20.68,31.36l-5.72,7.5c-1,1.27-2,2.48-3,3.7l-3,3.66-3,3.61c-1,1.23-2.09,2.39-3.13,3.61l-6.31,7.11c-2.17,2.31-4.39,4.6-6.59,6.9l-3.29,3.44c-1.12,1.13-2.29,2.22-3.44,3.32l-6.91,6.64c-2.32,2.2-4.77,4.28-7.16,6.42-4.71,4.32-9.79,8.28-14.74,12.39-2.52,2-5.12,3.91-7.68,5.86l-3.86,2.92-3.95,2.79c-2.66,1.85-5.29,3.73-8,5.55l-8.16,5.29c-2.7,1.8-5.52,3.43-8.31,5.11l-4.18,2.51-2.1,1.25-2.13,1.19-8.54,4.76c-2.87,1.55-5.8,3-8.69,4.51l-4.35,2.24-4.42,2.14c-3,1.39-5.93,2.86-8.89,4.22-11.85,5.5-24,10.51-36.25,15.28s-24.68,9.12-37.1,13.32c-24.92,8.36-50.11,16-75.22,23.67s-50.17,15.49-74.93,24-49.17,17.81-73.13,28c-6,2.5-11.91,5.23-17.85,7.87s-11.85,5.41-17.61,8.3a344.94,344.94,0,0,0-33.63,19c-21.55,13.85-41.22,30.32-57.27,49.49-3.95,4.79-7.8,9.72-11.28,14.84-1.8,2.53-3.4,5.16-5.08,7.75l-2.34,3.92,0,0-1.17,2-1.1,2q-4.63,8.48-9.64,16.8l0,0q-4.59,7.61-9.48,15.05A466,466,0,0,1,514,1161l-.31-.23a465.54,465.54,0,0,0,45.78-59.26q7.95-12.21,15-24.86s0,0,0-.05c.88-1.55,1.74-3.1,2.58-4.67l0,0,1.24-2.29,1.1-2,1.17-2,2.35-4c1.68-2.6,3.28-5.27,5.08-7.81,3.47-5.16,7.27-10.13,11.26-15,16-19.35,35.68-36,57.28-50a346.69,346.69,0,0,1,33.69-19.25q8.71-4.38,17.62-8.41c5.92-2.71,11.85-5.42,17.86-8q35.94-15.54,73.19-28.34c24.78-8.6,49.83-16.5,74.93-24.26s50.23-15.42,75-23.84q18.62-6.31,36.93-13.36c12.15-4.8,24.21-9.83,36-15.35,3-1.35,5.85-2.82,8.78-4.23l4.4-2.12,4.31-2.25c2.87-1.51,5.77-3,8.6-4.51l8.47-4.75,2.12-1.18,2.07-1.24,4.14-2.51c2.76-1.67,5.55-3.3,8.21-5.1l8.09-5.26c2.64-1.8,5.25-3.67,7.9-5.52l4-2.77,3.81-2.91c2.53-1.93,5.11-3.84,7.61-5.81,4.94-4.08,9.87-8,14.59-12.31,2.35-2.13,4.79-4.18,7.08-6.31l6.83-6.58c1.13-1.11,2.29-2.18,3.4-3.31l3.27-3.42c2.17-2.29,4.37-4.51,6.51-6.84l6.24-7c1-1.19,2.12-2.33,3.1-3.55l3-3.61,3-3.6c1-1.21,2-2.42,3-3.67l5.67-7.45A361.75,361.75,0,0,0,1190.42,699a290.61,290.61,0,0,0,26.38-58.85q1.37-4.3,2.6-8.62,3.88-13.66,6.57-27.58a329,329,0,0,0,5.51-44q.16-2.75.27-5.49.42-10.08.25-20.15c0-3.54-.15-7.1-.31-10.64q-.42-8.61-1.29-17.17c0-.3-.06-.6-.1-.9s-.08-.85-.14-1.27c-.58-5.61-1.33-11.19-2.21-16.76-.22-1.48-.47-3-.72-4.44l-.24-1.37a307.34,307.34,0,0,0-18.67-64.34,264,264,0,0,0-16.42-33,260.28,260.28,0,0,0-21-30.72,243.3,243.3,0,0,0-25.81-27.49l-7.1-6.32c-2.44-2-4.94-4-7.47-6l-3.75-3c-1.25-1-2.6-1.87-4-2.8l-7.9-5.51c-2.68-1.81-5.46-3.42-8.18-5.12l-4.11-2.55c-1.37-.83-2.82-1.56-4.23-2.35l-8.51-4.66c-2.91-1.45-5.85-2.83-8.77-4.25l-4.39-2.11-4.5-1.91-2.47-1.05h0c-2.16-.92-4.34-1.84-6.52-2.73l-7.13-2.64-.1,0-2-.72c-1.54-.56-3-1.17-4.62-1.67l-4.68-1.51c-.6-.19-1.2-.39-1.8-.56a.09.09,0,0,0-.06,0,360.06,360.06,0,0,0-36.24-9.54l-9.7-1.92c-1.61-.34-3.24-.59-4.87-.9l-4.94-.8c-2.26-.4-4.52-.75-6.79-1.07a.69.69,0,0,0-.2,0c-4.2-.6-8.42-1.1-12.62-1.67l-9.88-1-4.93-.5-4.94-.37c-3.3-.23-6.6-.52-9.87-.72l-9.88-.49c-9.75-.37-19.53-.6-29.3-.57h0q-5.19,0-10.38.14l-3.25.08h-.1c-4.41.12-8.81.26-13.2.45h-.12q-6.58.27-13.15.64h-.13q-6.52.38-13,.85h-.1q-6.36.46-12.7,1h0q-11.7,1-23.37,2.36c-13.14,1.47-26.25,3.18-39.35,5s-26.17,3.73-39.19,5.91-26,4.75-38.85,7.59-25.67,6-38.31,9.55q-38,10.59-74.6,24.78C554.39,317,530.5,327.5,507,338.65s-46.69,22.88-69.9,34.53-46.58,23.13-70.6,33.39S317.71,425.72,292,431.72a317.06,317.06,0,0,1-78.75,8.59,353.66,353.66,0,0,1-78.45-10.76L125.26,427c-3.17-.9-6.29-1.88-9.44-2.83l-4.72-1.43-4.65-1.6c-3.09-1.1-6.21-2.11-9.29-3.25q-18.4-6.86-36-15.4A427.64,427.64,0,0,1,7.41,371.14q-4.67-3.18-9.24-6.5c-1.06-.76-2.11-1.53-3.17-2.31l.29-.29c1,.7,1.91,1.4,2.88,2.09q4.57,3.27,9.24,6.44A430.43,430.43,0,0,0,61.6,401.75q17.55,8.43,36,15.19c3.06,1.12,6.18,2.12,9.27,3.19l4.64,1.58,4.71,1.41c3.15.9,6.26,1.93,9.43,2.77l9.53,2.48a345,345,0,0,0,78.14,10.37,315.06,315.06,0,0,0,78.14-8.87q2.3-.54,4.56-1.11l.21-.06c23.82-6,46.84-14.49,69.28-24.1,23.95-10.26,47.16-21.83,70.34-33.52s46.33-23.54,69.86-34.77,47.41-21.83,71.9-31.36S627,287,652.47,279.86c12.71-3.62,25.56-6.77,38.51-9.67s25.92-5.47,39-7.66,26.19-4.1,39.29-6l10.28-1.43h0q6.17-.84,12.32-1.62l.18,0c4.08-.52,8.15-1,12.24-1.49l.31,0,4.13-.47c2.69-.31,5.37-.61,8.06-.9l.41,0q6.18-.65,12.39-1.22l.46,0q6-.54,12.09-1l.55-.05c4.12-.31,8.25-.6,12.38-.84l.62,0q6.32-.39,12.62-.68l.61,0c4.21-.19,8.42-.36,12.64-.48h.57q3.08-.1,6.14-.17,3.42-.09,6.86-.13h.52c4.46,0,8.91,0,13.38,0h.43c4.63.06,9.27.17,13.89.33h.27l4.62.17,9.77.48h.21c3.32.19,6.65.48,10,.72l1.71.13h0l3.2.24,4.94.49,4.29.44.39,0,5.26.55c2.86.39,5.73.74,8.59,1.12l.72.09c3.49.46,7,1,10.44,1.57l4.93.8.33.05.33.06c1.43.23,2.85.45,4.28.75l9.79,1.93q3.67.76,7.32,1.6l.28.06q5.9,1.35,11.73,2.9l.55.15c4,1.07,8,2.21,12,3.42l.74.22c2,.61,4,1.22,5.93,1.87l4.74,1.51c.54.17,1.07.36,1.61.56.23.07.47.16.7.25.79.29,1.57.59,2.36.87l9.32,3.44,1.32.55.63.26c2.39,1,4.79,2,7.18,3l4.56,1.93,1.91.91.5.25,2,1c3,1.43,5.92,2.83,8.88,4.29l3.8,2.08.18.1,4.66,2.54c1.43.81,2.9,1.55,4.3,2.39l3.39,2.09.7.43.08.05c2.77,1.73,5.59,3.41,8.32,5.2,2.25,1.5,4.48,3,6.67,4.61l.66.47a252.37,252.37,0,0,1,49.5,46.71,273.11,273.11,0,0,1,37.84,64.56q4.48,10.92,8.13,22.09c.43,1.32.84,2.64,1.26,4,.08.24.16.48.23.73.24.78.48,1.57.71,2.36a4.74,4.74,0,0,1,.15.5c.16.53.32,1.05.47,1.58.09.27.17.55.24.83s.21.74.31,1.11.18.58.25.86.22.74.32,1.1.13.51.2.77.13.44.18.67.22.77.32,1.16c.05.17.09.33.13.49l.27,1c0,.16.09.32.13.48.1.37.19.73.28,1.1,0,.14.08.3.11.45.1.35.19.7.27,1.06a2,2,0,0,1,.09.35c.1.36.19.72.28,1.09,0,.14.07.28.1.41.09.37.18.74.26,1.11a2,2,0,0,1,.08.33c.09.35.18.69.25,1a1.67,1.67,0,0,1,.08.32c.09.36.17.71.25,1.07,0,.12.06.24.08.37.72,3.08,1.38,6.16,2,9.26.47,2.32.89,4.64,1.3,7,.37,2.09.71,4.19,1,6.28a335.6,335.6,0,0,1,3.71,36.45Q1235.9,536.73,1235.51,550Z" style="fill:#f7faf1"/><path d="M1911.64,36.94l-5,27.9c-2,8.41-4.34,19.77-6.57,28-1.37,5-4.55,16-5.85,20.8-2.62,7.85-6.33,19.59-9.37,27.38-21.77,56.34-56.7,110.12-107.69,150.78q-12.13,9.79-25.42,18.47a250.47,250.47,0,0,1-58.42,27.49c-10.37,3.46-20.88,6.46-31.39,9.42-42.12,11.41-83.61,24.15-123.55,40.39-24.81,10-49.52,21.12-73.46,32.6-33.57,16.09-67,33.2-97.43,53.41a431.29,431.29,0,0,0-91.8,80.9l0,.05a389.47,389.47,0,0,0-52.88,78.43h0l-2,3.89c-.56,1.11-1.11,2.21-1.65,3.33q-3.34,6.84-6.43,13.78,2.76-6.93,5.79-13.78c1.23-2.76,2.48-5.51,3.78-8.24.12-.28.26-.56.39-.84h0q.16-.37.36-.75h0q.27-.6.57-1.2l.27-.57c.07-.17.16-.33.24-.5h0l.28-.58a.9.9,0,0,1,.05-.09l.21-.42a370.14,370.14,0,0,1,46.11-72.44c6.94-8.49,14.32-16.72,22.16-24.61,35.59-36.64,79.6-66.63,126.94-91.32,18.2-9.55,38.79-19.51,57.58-28.38,58.09-27.7,119.74-49.67,183.22-66.39,20.89-5.84,41.69-12,61-21.12,19.32-8.92,36.74-20.68,52.72-33.49a326.36,326.36,0,0,0,62-65.79l8.37-12.23c3.55-5.69,7.06-11.51,10.55-17.24,2.2-4,5.63-10.48,7.81-14.46,2.76-4.93,7.06-14.65,9.49-19.64,2-4.14,3.86-9.09,5.68-13.3l2.87-6.66,1.43-3.32c2.34-6.19,6.58-17.48,8.82-23.66,1.71-5.32,4.84-15.37,6.52-20.57,1.58-4.72,2.51-9.2,3.82-13.81,1.89-6.25,4.59-17.91,6.86-28,0,0,0-.05,0-.07C1909.83,45.17,1910.89,40.34,1911.64,36.94Z" style="fill:#f7faf1"/><path d="M604.74,1137.43a72.74,72.74,0,0,1-13.83-1,60.07,60.07,0,0,1-13.08-4.45,29.82,29.82,0,0,1-10.75-8.32,20.47,20.47,0,0,1-3.15-5.87,23,23,0,0,1-1-6.48,40.38,40.38,0,0,1,2.45-12.63c1.39-4.05,3.1-8,4.87-11.85s3.55-7.72,5.49-11.57a117.88,117.88,0,0,1,7.26-10.76c-2,3.81-3.85,7.62-5.48,11.53-1.89,3.76-3.68,7.66-5.46,11.49a122.92,122.92,0,0,0-4.79,11.74,38.85,38.85,0,0,0-2.37,12.06,21.51,21.51,0,0,0,.91,6,19,19,0,0,0,2.87,5.37,28.27,28.27,0,0,0,10.07,7.76,58.14,58.14,0,0,0,12.64,4.29A96.92,96.92,0,0,0,604.74,1137.43Z" style="fill:#f7faf1"/><g style="clip-path:url(#clip-path)"><path d="M553.44,1211.49a233.25,233.25,0,0,0-25.79,20.57c-2.91,2.65-5.64,5.32-7.47,9.74-2.45,6-2.12,12.64-.28,20,6,24,12.61,29,35.88,24.1,13.58-2.87,26.9-7.11,38.24-10.17-1.36-9.61-2.48-17.55-3.62-25.5l2.91-.42c.38,3.65.92,7.31,1.09,11,.19,4.07,1.26,7,3.17,8.93,1.66,1.7,3.81,2.72,10.36,3.22,12.82,1,17-1.56,25.4.87,4.72,1.35,7.76,3.38,7.62,3.87-.33,1-15.06-6.16-21-.47-2.84,2.76-2.68,7.58-2.25,14.41.39,6.15,1.2,12.67,3.55,18.22,14.14,33.39,12.08,66.94,1.94,100.73-2,6.78-4.93,13.37-6.13,20.29-.72,4.2,1.06,8.88,1.72,13.34l3-.28,4.51-22.76,1.06.14c-.63,4.74-.65,9.68-2,14.18-2.79,9.3-.52,17.31,4.43,25,9.65,15,18.72,30.2,20,48.81.14,1.87.46,5.49.85,12.73.9,16.84.77,29.22.76,29.94-.2,15.89-18.19,56.38-48.49,105,1.29-4,3.31-10,6.08-17.15,8.55-21.95,14.2-28.89,23.06-48.17,9-19.63,13.8-30,15.83-45.52a120.16,120.16,0,0,0-2-40,124.86,124.86,0,0,0-23.73-50.34c.08,3.22.25,7.85.63,13.39,1.08,15.17,1.61,22.75,3.68,28.76,3.65,10.67,7.85,10.92,17.45,29.26,2.67,5.06,4.6,9.35,5.82,12.11-2-2.68-5-6.63-8.42-11.47-15.37-21.49-17.6-27.93-18.64-31.73a75.11,75.11,0,0,1-2.44-15.06c-.2-5.1.25-9.54-.31-18.43a51.25,51.25,0,0,0-.64-5.79,48.28,48.28,0,0,0-3.06-10.48l-1.62-2c-2.17,37.12.15,73.8,10.87,109a76.24,76.24,0,0,0,4.93-51.23q-4.44-24.36-8.9-48.72c6.5,16.39,16.74,49,11.33,89.42a173.77,173.77,0,0,1-14.34,49.42l1-18.31A116.51,116.51,0,0,0,601.85,1595c-9.94,15.18-10.13,23.21-10.1,25.63a33.15,33.15,0,0,0,1.27,8.53,101.62,101.62,0,0,0,30.07-56.76c-.12,5.13-.87,21.27-7.56,33.72a103.86,103.86,0,0,1-9.16,13.8c-3.39,4.22-6.09,7.22-6.09,7.22-4.53,5-4.85,4.63-5.14,5.77-1.18,4.35,3.88,7.38,8.4,18.54.59,1.48,1,2.72,1.28,3.49a15.45,15.45,0,0,1-1.94-1c-5.94-3.43-8.51-9.74-9.61-13.37a61.56,61.56,0,0,0,3.25,22.34c2.64,7.72,6.54,14.88,10.83,19-2-9.94-3.88-19.53-5.82-29.12l7-10.59a33.85,33.85,0,0,0-1,7.36c-.23,8.13,2.65,13.21,5,19.33,1,2.63,5.75,15.72,4.59,30.32-.79,10.12-4.19,17.88-4.76,17.74-.74-.17,4.16-13.24,2.38-30-1.75-16.58-9.23-29.8-10.16-29.48-.6.21,1.38,6.3,3.57,17.6a249.39,249.39,0,0,1,4.24,34.25c1.78-2.61,2.31-3.4,3.62-5.33a58.62,58.62,0,0,1-.56,6.86c-2.45,10.84-.67,12.91,9.43,14.82,11.57,2.18,22.95,5.46,34.37,8.42,11.92,3.08,15.11,13.07,17,23.77,1.71,9.73-1.59,17.75-8.73,24.34-7.47,6.92-9.69,7.25-13.57,13.6-1.72,2.86-4,6.64-3.39,11.23.35,2.68,2.57,5.46,7,10.92q5.32,6.52,11.25,12.48c2.87,2.89,5,4.85,5.37,5.21,4.49,4.26,9.69,15.28,13.44,44.25a11.51,11.51,0,0,1-2.53-2.3,13.49,13.49,0,0,1-2.76-6.22c-1.19-6.18-3.3-12.11-4.66-18.25-1.24-5.63-3.17-6.09-25.72-34.3-2.47-3.1-5.93-7.54-5.71-13.32.13-3.88,1.85-6.68,3.88-9.86,4-6.34,5.9-7.9,15-15.62,6.68-5.66,9.32-12.68,7.85-21-1.18-6.79-2.68-13.59-7.6-17.86-1.51-1.31-3.2-2.21-7.15-3.57-14.24-4.9-21.44-2.8-32.61-6.66a51.17,51.17,0,0,1-12.38-6.33,84.39,84.39,0,0,0-4.45,8.74c-.67,1.52-4.58,10.55-5.45,17-.59,4.55.28,8.15,9.7,27.5,9.64,19.84,12.24,23.28,13.13,31.58,1.08,10-1.2,19.25-2.07,19.22s.06-7.67-1.85-17.52c-3-15.45-9.27-18-16.83-37.86-4.07-10.72-6.39-17-5.61-25.45,1-10.72,5.82-12.38,8.61-22.61,3.12-11.36-.25-22.36-7-44.36-5.53-18.1-7.91-21.44-11.57-36.9-1.82-7.73-1.87-16.14-1.43-24.18.34-6.29,1.38-13.26,4.39-18.54a98.18,98.18,0,0,1,17.3-22.64c11.33-10.71,14.25-22.51,10-37.55-9.06-32-10.22-65-7.89-98.08a90.83,90.83,0,0,1,4.6-21.59c10.87-33.13,17.6-66.32,6-100.94-1.38-4.12-6.18-14.34-6.79-28.73a76.29,76.29,0,0,1,1-15.76l-15.15,1.57c-2.68,12.57-.39,20,2.35,24.41,2.45,4,4.59,4.56,8.57,9.69a60.37,60.37,0,0,1,9.32,19.59c3.69,14.12-2.18,26.66-5.3,36-4.35,13.14-7.64,33.18-1.48,62.26-7.16-27.26-5.17-47-1.75-60.3,2.69-10.45,9.51-29.57,2.59-42.94-2.71-5.25-6.67-11.41-6.67-11.41-5.82-9-8-10.45-10-14.86s-3.51-11-1.19-21.19l-3.4-.45a3.36,3.36,0,0,0-1.69.63c-3.7,2.77-.09,13.6.42,15.08,1.58,4.57,3.68,7.8,6.57,12.16s4.85,6.5,6,8.18c4.68,6.46,4.95,14.57,4.41,26-.92,19.71-3.07,25.17-4,39.12-1.38,20.4,1.46,35,1.48,35s-5.57-42-1.57-60.87c0,0,2.39-11.18,1.51-20.77-.3-3.1-.81-6.25-.81-6.25-.31-1.88-.61-3.32-.68-3.66-1.13-5.22-5.4-9.83-5.93-10.42-3-3.29-7.43-11.24-14.11-30.7l-1.82.58-4.44,1.42a2.18,2.18,0,0,1,.58-.7,2.23,2.23,0,0,1,.81-.38c3.56-.51,9.62,13.16,11.36,26.58.73,5.61,0,5.77.81,13.34a121.41,121.41,0,0,0,3.7,19.29c6.23,23.67,2.19,41.81,8.33,65.62,2,7.76,1.9,16.45,6,23.28.45.77,2.31,3.65,1.74,7a7.84,7.84,0,0,1-1.11,2.93q-3.86-11.08-6.62-22.51c-4.75-19.67-3.15-24-7.75-53-4-25.2-5.87-26.22-7.44-42.69a101.73,101.73,0,0,0-2.58-16,96.52,96.52,0,0,0-8.64-22.43l-14.29,3.62c4.29,19.57,4.47,30.15,3.77,36.25-.66,5.75,0,11.76-1.8,17.26-.71,2.23-1.88,5.18-.64,8,1,2.21,2.65,2.42,5.37,4.38s5.71,6.53,11.36,15.51c1.94,3.13,3,4.7,3.46,5.6,7.92,14.44-1.4,25.45,5.11,41.47.4,1,0-.11,8.19,14.67,4.47,8.08,6.7,12.11,7,12.75,7.76,17.14,1.94,35.59,1.34,37.47-3.41,10.32-9.95,19.35-11.33,18.68-2.24-1.09,16.49-24.35,10.27-48.39-4.57-17.62-20.78-28.86-21.43-45.93-.16-4.23-.64-8.44-.58-12.66.08-6.77.79-11-1.49-16.4-.09-.23-.87-1.56-2.4-4.22a105.65,105.65,0,0,0-11.29-16c-1.24-1.43-2-2.23-2.91-2.08-1.94.34-3.41,5.46-2.16,9.19,1,3,3.66,3.62,7.63,6,7.16,4.33,11.64,10,19.9,20.3a59.05,59.05,0,0,1,3.88,5c6.62,10.91,2.09,22.37.66,36.6-2.12,20.93,4.5,27.53,2.68,52.29-.38,5.17-1.4,14.88-8.25,20a16.19,16.19,0,0,1-3.62,2,98.75,98.75,0,0,0,7.95-26c4.22-26.68-5.59-37.91-1.55-64.81a35.74,35.74,0,0,0,.06-13.48c-2.54-12.48-12.18-20.87-13.13-21.67a98.07,98.07,0,0,0-10.27-8c-4.85-2.56-7.95-5.3-7.76-11.65.09-2.34-2.62-6-4.9-7-4.7-2-7.35-4.68-7-10.09.5-8.21,1.5-16.44,1.22-24.62-.25-7-2-13.89-3.08-20.83,8,7.41,5.64,16.81,4.79,26-.54,5.88-1,11.78-1.08,17.69-.1,6.22,3.55,8.83,9.51,9.34,3.28-20.76,7-41.09-.18-61.94l-15,2.65c.87,2.52,1.58,4.54,2.28,6.56-10.75-10.64-23.15-7-35.45-4.38l.17.1,10.21-6c-3.31-5.29-7.24-10.71-10.26-16.62-4.38-8.56-6.79-17.33-.42-26.4,1.64-2.35,2-5.84,2.36-8.88,1-8.42,15.72-31.17,24.08-39.34,17.46-17.14,64-23,112.15.65-51-17.84-99.29-12.86-122.05,15.42A63.07,63.07,0,0,0,519,1234.92Zm-30.39,65.94-8.73-27.69C511.67,1261.58,516.1,1269.41,523.05,1277.43Z" style="fill:#f7faf1"/><path d="M637.47,1276.47c12.09.44,24.18,1.11,36.26,1.09,1.72,0,4.39-3.07,5-5.21,2.85-10.34,1.1-20.8-.07-23.85-2.77-7.2-5.33-7.65-10.67-15.93-8.24-12.86-6.66-24.28-11.64-25a5.41,5.41,0,0,0-2.51.44,4.84,4.84,0,0,0-3,5c0,8-1.94,32.62-3.38,40.74-1,5.71-3.68,13.78-11.22,22.83a75.21,75.21,0,0,0,8.36-26.21c1.71-14.48-.06-38.21,4.49-43.2A10.87,10.87,0,0,1,654,1204a8.62,8.62,0,0,1,3.61-.08c7.87,1.72,6.79,15,16.2,30.92,5.82,9.74,9.69,10.6,11.22,18.35a30.79,30.79,0,0,1-1.89,16.9c2.61-1.81,9.63-7.18,11-16a22.73,22.73,0,0,0-2.17-13.26c-5.06-10.85-12.61-20.48-19.08-30.59-.73-1.13-2.06-1.87-3.12-2.77-8.14-7-17.27-12.53-25.67-19.17-14.86-11.75-32.75-12.28-49.65-2.59a253.13,253.13,0,0,0-28.81,18.45c-7.41,5.37-18.49,13.3-32.38,22.91v-1.68a256.42,256.42,0,0,1,39-30c31.8-19.92,46.32-19.22,50.35-18.74,7,.84,14.86,2.08,20.31,6.07,4,2.93,24.08,11,40.13,33.83,9.32,13.24,16.8,23.89,15,37.89-1.64,12.41-9.7,20.84-13.92,24.6a7.07,7.07,0,0,0,4.75,2.14c5.77-.09,9.76-10.12,11-15.37,2.49-10.31-1.51-19.41-3.54-23.31a27.85,27.85,0,0,1,7.2,15.37c1.06,8.92-2.76,15.71-4.35,18.54a34.17,34.17,0,0,1-5.68,7.45,82.22,82.22,0,0,1,19.4,4.11c2.43.86,5.93,2.25,10.25,1.38a15.5,15.5,0,0,0,7.24-3.63c11-10.39-6-47.42-8.67-53.15-.91-2-5-10.86-6.35-10.38-1,.36.31,5.94,1.27,14,.89,7.43,2.17,18.2.43,27.63-1,5.19-3.55,13.83-11.86,23.38l-1.69-.33a47.51,47.51,0,0,0,10.08-20.28c2.91-13.43.44-33.73-1.72-39.36a8.36,8.36,0,0,1-.53-4.48c.32-1.76,1.47-4.26,3-4.7,5.25-1.52,15.86,22.22,17,24.92,4.31,9.73,5.58,15.68,5.94,17.47,1.48,7.42,2.68,13.78-.09,20.58a24.92,24.92,0,0,1-7.95,10.26c5.26,2.49,8.28,1.59,9.63,1,8.58-4,6.43-23.65,6.17-26s-1.08-8.4-5-17.5c-2.34-5.36-5.9-12-23-32.92-8.38-10.22-16.1-19.22-16.1-19.22-7.91-9.25-12.39-14.17-17.28-22.43A102.16,102.16,0,0,1,677,1161c20.36,26.49,35.7,44.55,47.14,57.24a93.55,93.55,0,0,1,18.67,28.83c6.43,16.17,5.36,28,4.93,31.6a56.25,56.25,0,0,1-2.82,12.11,21.19,21.19,0,0,0,7.9-7.44c1.48-2.43,4.85-9.27.92-23.76-3.62-13.27-9.16-15.69-20.59-34.75-6.79-11.3-14.36-22.21-20-34-8.39-17.58-21.42-24.25-39.89-23.25-17,.92-46.32,2.09-63.11-.25-9.93-.39-26.54-7.13-42.08-13.67a240.29,240.29,0,0,0,108.37,9,17.68,17.68,0,0,1-2.18-2.47c-.61-.85-1.13-1.72-1.66-2.59l-.14.16c5.87,2.54,11.58,6.6,17.65,7.27,10.12,1.13,15.64,7.55,20.41,15.17,14,22.41,28.13,44.77,41.25,67.75a52.61,52.61,0,0,1,6.78,23.94c.19,8.83-2.22,15.24-6.44,19.36-6.4,6.23-15.86,5.3-26.11,4.14-12.5-1.41-31.62-6.4-45.81-12.11-2.59-1-9.18-3.8-15.1-.88a14,14,0,0,0-4.24,3.35c-7.46,8.07-7,20.23-6.92,22.87.29,7.77,2.72,13.68,4.52,18,3.14,7.64,4.85,7.75,6.36,13,2.59,9.16-.27,17.59-1.42,21-3.3,9.73-7.53,10.68-14.55,22.57-4.37,7.44-6.49,13.45-8.89,20.25-5.13,14.6-8.73,24.79-6.49,36.56.83,4.37,3.61,9.46,9.18,19.66,13.42,24.61,16.2,22,18.23,31,2.66,11.85-2.14,16.38.75,37.88.55,4.08,1.19,7.4,1.64,9.56a28.89,28.89,0,0,1-2.91-4c-8-13.32-.14-25.09-3.75-40.7-1.72-7.41-3.63-5.41-13-22.51-8.49-15.5-12.74-23.26-14.26-31.81-4.58-25.66,12.17-57.59,22.72-68.61,1.61-1.68,8.17-8.19,9.6-17.77a27.11,27.11,0,0,0,.08-7.31c-.91-6.77-4.16-10-7.14-15.55a47.23,47.23,0,0,1-5.44-18c-1-11.6,3.47-20.88,4.92-23.82a46.3,46.3,0,0,1,3.4-5.82c-1.66-1-4.72-2.51-7.52-1.42-3.77,1.45-5,6.76-5.82,11.73a110.13,110.13,0,0,0,.13,32c1.94,13.56,4.5,31.72-.28,50.39-2.55,10-4.59,9.91-10.58,27.69a267.76,267.76,0,0,0-8.05,29.27,155.68,155.68,0,0,1,5-30.89c4.43-16.7,7.29-16.08,10.18-28.13,4.77-19.94.55-41.4-.59-57.73-1-14-1.35-21.82,3.7-34.34Z" style="fill:#f7faf1"/><path d="M707.55,1896.73a45.08,45.08,0,0,0,4.91-17c.32-3.93,1-18.78-7.76-29.2-6.52-7.78-10.44-10.56-10.44-10.56-2.68-1.9-5.73-3.57-6.7-7.06a12.62,12.62,0,0,1-.06-5.47,8.53,8.53,0,0,1,1.94-4.47c2-2.12,5.35-2.31,8.73-2.29.77,0,1.55-.37.7-.15.39-10.09,1-18.16,1.43-23.29,1.71-20.32,3.58-28.09-.79-37.27-1.94-4-4.15-6.42-7.89-10.33-7.68-8-18.72-19.22-33.08-32.82A110.67,110.67,0,0,1,686,1736.26c9.14,8.87,18.25,17.7,20.74,31.23.85,4.6.32,6.36-.74,21.74-.86,12.63-1.29,22.84-1.51,29.33,9.47-3.61,19.4-19.89,19.7-31.83.1-3.85,1-10.15,1.55-22.88.17-4.1.2-6.32-.48-9.14-1.7-7.09-6.4-11.51-10.34-15.1-19.1-17.34-28.84-26-38.14-25.42-2.43.15-6.46.84-9.84,1.42-6.36,1.08-11.51,2.29-14.92,3.16a56,56,0,0,1,16.73-7.86c3.6-1,7.14-1.94,11.69-1.35,4.08.52,7.52,1.5,10.56,4,10.08,8.35,19.84,17.08,29.59,25.84a20.55,20.55,0,0,1,5.37,6.78c2.91,5.35,3.06,10.52,3.22,20.64a155.39,155.39,0,0,1-.73,17.26,91.86,91.86,0,0,1-1.6,12c-2.17,9.46-9.43,26.63-20.46,28.18-4.85.69-9.25-1.86-13.26,1.38-.49.39-2.48,2-2.47,4.16s2.09,3.72,4.62,5.72c3.08,2.44,5.82,5.38,9,7.68,8.73,6.24,16.43,26.21,10.38,42.38A32.81,32.81,0,0,1,707.55,1896.73Z" style="fill:#f7faf1"/><path d="M507.13,1295.92c-2.4,2-6.07,4.92-10.75,8.25-10.39,7.39-15.81,11.16-23.72,12.63-3.88.71-8.78,1.62-14.12-.5-8-3.18-11.49-11-14.66-18-2.49-5.47-5.31-21.55-4.7-42,.22-7.28,5.6-15.35,10.59-21.34,21.94-26.31,44.52-52,67-77.85,3.35-3.84,15-12.61,23.85-16.85.62,1.83,4.35.58,4.13.7-28.48,15.25-54.25,54.5-73.88,77.44a120.75,120.75,0,0,1-13.47,13.85c-13,10.94-17.86,24.81-15.21,41.66,1.17,7.49.79,14,4,21.75,2.54,6.07,6.14,14.7,14.47,17.94,6.7,2.6,13.2.48,16.49-.58,6-1.94,7.86-4.58,16.34-9.84A117.63,117.63,0,0,1,507.13,1295.92Z" style="fill:#f7faf1"/><path d="M581.67,1671.47c-1.64.46-4.35-4.87-5.08-6.26-9.7-18.43-38.71-40-33.6-50.54,1.06-2.17,2.74-2.93,7.39-9.23a38.83,38.83,0,0,0,3.55-5.87c2.27-4.6,7.64-15.43,4.31-25.39-3.47-10.35-12.3-8.54-15.52-18.51-3.15-9.73,2.44-21.37,8.61-27.67,4.09-4.2,5-2.52,15.69-9.37,8.67-5.56,10.34-8.08,21-15.83,4.75-3.46,9.77-6.52,14.91-9.92-3.78,7.32-9.65,13.14-16.32,18.64a74.61,74.61,0,0,0-14.27,15,22.6,22.6,0,0,0-3.63,8.87c-1.64,9.46,4.36,17.76,6.07,20.17,3.88,5.43,6.19,5.48,9.14,11.16a32.5,32.5,0,0,1,3.17,10c2,12.57-4.29,20.22-7.84,38.67-1.75,9.17-3.4,18.2-.81,29,1.65,6.9,3.55,8.47,6.44,16.66,4.2,11.92,4.85,21.78,5.27,29.44,1.81,29.39-9.11,35.56-9.06,66,0,21.28,5.43,38.15,3.67,38.59-1.12.29-4-6.3-5.82-12.48-7.84-27.2,6-47.48,7.3-87.52.25-7.92-.17-11.2-.42-12.89-2.22-14.66-8.54-19.41-11.55-34.71a48.29,48.29,0,0,1-.73-12.47c1.13-19.48,4.68-30.8,4.68-30.8,2.25-7.18,4.48-11.35,4.62-18.34.17-8.95-3.22-16.36-6.2-21.29a60.87,60.87,0,0,1,1.21,13.33c-.43,19.52-10.29,25.74-12.28,43.4-1.94,17.1,5.23,29.54,3.81,30-1.23.4-6.52-8.77-7.84-19.84-1.08-9.09.89-16.39,2.91-23.57,3.75-13.35,6.39-11.91,8.83-22.94.21-1,4.24-19.93-1.55-28.55a39.26,39.26,0,0,1-3.46-6,43.76,43.76,0,0,1-2.74-7.88c-1.07-5,1.85-13.59,8.16-21.91-5.49,1.76-17.77,6.59-24.34,18-1.46,2.53-3.09,5.44-2.91,9.24.38,7.48,7.62,14.44,9,15.82a20.61,20.61,0,0,1,5.29,6.6,19.9,19.9,0,0,1,1.54,5.26c1.69,11.18-4.24,23.6-4.24,23.6-6,12.49-10.41,10.94-11.29,16.6-2.64,17.12,36.92,39.31,36.16,51.85C582.93,1668.5,582.74,1671.17,581.67,1671.47Z" style="fill:#f7faf1"/><path d="M663.87,1715.1l-7.32,5.16a64.58,64.58,0,0,1,16.57,14c2.91,3.49,10.67,12.63,13.27,25.44,2.67,13.07-2.27,18.64-5.08,39a158.2,158.2,0,0,0-1.06,32.41,84.4,84.4,0,0,1-3-32c1.83-17.41,9-28.71,3.68-43.41a67.51,67.51,0,0,0-4.62-9.12c-4.26-7.57-8.86-16.17-16.84-21.55a40.34,40.34,0,0,0-13.57-5.81c-14.45-3.36-24-21.53-26.9-37.23-2.39-13,1.07-23.71,4.11-33,1.79-5.51,5.34-12.33,12.38-25.73,10.86-20.69,12.35-21.45,15-29.32a87,87,0,0,0,4.52-28.52,82.94,82.94,0,0,0-5.09-27.16,29.85,29.85,0,0,1,4.56,4.9c11,14.8,5.58,36.44,3.52,44.7a85.33,85.33,0,0,1-5.6,15.73c-4.55,9.68-7.84,12-13.34,21a111.87,111.87,0,0,0-11.44,26.06c-3.69,11.91-5.94,19.19-5,28.65,1.39,13.66,9.49,32.91,25.22,36.76C652.8,1717.35,658.49,1715.53,663.87,1715.1Z" style="fill:#f7faf1"/><path d="M699.38,1168c-29.61-25.79-47.69-21.64-65.09-22.92-19.45-1.43-38.79-4.69-58.19-5.63-13.18-.63-26.47,1.35-37.61,2,10.67-6.24,24.89-6.5,39.17-5.4,24.4,1.88,48.77,4.24,73.16,6.32C663.42,1143.43,682.58,1144.12,699.38,1168Z" style="fill:#f7faf1"/><path d="M600.82,1815.33c-12.88-7.86-18.7-19.47-20.21-33.7l5.31,12.66a65.5,65.5,0,0,0,4.15,7.47c1.94,2.91,3.76,4.35,14.12,11.79,8.73,6.28,9.61,6.82,10.33,8.69,2.44,6.31-2.39,13.27-.64,14.37,1.09.68,3.74-1.54,5.29-3.28,6.91-7.73,5.24-20.42,4.3-25.49,1.47,3.09,4.68,11,2.37,20.13-.68,2.67-2.23,8.79-7.52,11.86-.6.35-5.26,3-7.46,1.14-2.91-2.48,3-9.37.27-14.8-3.77-7.44-19.24-2.83-24.94-12a16.57,16.57,0,0,0-3.64-4.78c-3.59-3.06-6.27-2.06-9-3.76-5.73-3.58-1-12.33-6.67-19.29-3.51-4.29-6.66-2.58-16.89-9.12a72.12,72.12,0,0,1-7.82-5.79c22.23,3.71,28.81,9.85,30.15,15.27,1,4.24.2,13.36,4.14,15.71a20.24,20.24,0,0,0,3.75,1.81c2.15.68,3.17.47,4.45,1.46.89.68,1.14,1.34,1.94,2.73C587.78,1810.43,589.38,1812.68,600.82,1815.33Z" style="fill:#f7faf1"/><path d="M552.32,1777.66a36.39,36.39,0,0,1-19.28-14c-7.76-11.35-9.7-28.86-1.41-39.47a32.24,32.24,0,0,1,17.27-11,23.81,23.81,0,0,0,2.43-.46c6-1.45,14.49-.89,17.46-4.8,5.38-7,8-16.58,10.67-25.4,1.35-4.33.34-9.42.72-14.14.11-1.38,1.29-2.67,2.59-3.69a90.06,90.06,0,0,1-3.1,27.16c-4.74,17.14-16.54,38.87-23.1,48.68a41.29,41.29,0,0,0-6.34,14.44,39.16,39.16,0,0,0-.91,7.77,23.33,23.33,0,0,1-1-8.31c.36-6,3.05-9.69,7.34-16.82,6.71-11.17,10-16.79,8.73-19.23-2-3.81-11.11-3.07-16.94-.87-10.77,4.07-14.88,14.77-15.46,16.32-.26.73-4.76,13.54,1.33,23.35,2.49,4,4.72,4.27,12.46,12.76C548.66,1773.11,550.87,1775.81,552.32,1777.66Z" style="fill:#f7faf1"/><path d="M475.21,1315.63c-.27.51-13.57-2.39-21.55-13.82-8.89-12.73-6-28.61-5.13-33.47a57.19,57.19,0,0,1,9.29-22c6.46-9.84,10.22-10,19.55-19.81,3.25-3.43,5.81-6.56,34-52,3.21-5.16,3.42-5.55,4.19-6.48,5-6.08,16.19-13.7,47.51-16.39.77-.07-31-1.06-45.08,19.54-1.51,2.22-.38,1.11-4.85,9.33-6.49,12-12.26,20.63-21,33.5-4.62,6.85-7,10.32-9,12.67-8,9.48-11.73,10-17.92,16.91a54.83,54.83,0,0,0-13.5,27c-.71,4.09-2.91,16.69,3.44,28C462.27,1311.33,475.48,1315.12,475.21,1315.63Z" style="fill:#f7faf1"/><path d="M629.09,1638.84c10.88-6.77,26.45-17.89,38.26-32.79,3.16-4,6-8.21,7.54-14.12,2.12-8.2.88-16.83-2.58-25.75-4.27-11-8.73-21.88-12.35-33.44.59.71,1.3,1.37,1.94,2.06a20,20,0,0,1,1.51,2.24c17,29.5,17.19,46.16,17.19,46.16C680.88,1604.05,659.6,1627.14,629.09,1638.84Z" style="fill:#f7faf1"/><path d="M679.62,1797.46c.42,0-.06,9.68,1.48,28,1,11.84,1.86,15.92,4.85,19.77,3.74,4.78,7,4.4,9.52,9.37,3.37,6.71.81,14.55.21,16.38-1.77,5.46-5.67,11.16-10.09,17.62-2.11,3.09-3.17,4.41-2.75,6,1,3.75,9.7,5.57,16.09,3.78,10.85-3,14.77-16.43,15.25-18.13.06.67,1,11.86-7.42,18.35a19.07,19.07,0,0,1-14.18,3.56c-5.28-.66-12.73-3.79-13.27-8.36-.12-1,.21-1.42,3.46-7.95,3.4-6.81,2.79-5.9,4.07-8.26,3.54-6.52,4.58-6.77,5.53-10.16.52-1.88,1.48-5.29.35-8.81-1.44-4.51-5.09-5.45-8.26-8.82-1.94-2.07-4-5.34-5.29-17.92C677.23,1813.53,679.06,1797.43,679.62,1797.46Z" style="fill:#f7faf1"/><path d="M495.07,1248.13c1.55-3.51,9-20.85,4-25.93a2.1,2.1,0,0,0-1.2-.73c-3.74-.47-7.27,13.85-14.61,30.58a198.13,198.13,0,0,1-9.26,18.42c-4.93,6.67-9.82,15.72-7.61,24.48,2.72,10.78,14.9,16,14.33,16.82s-10.16-2.59-14.89-11.5a25.94,25.94,0,0,1-2.71-12.68c.31-13.93,9.7-17.14,16.4-36.92,2-6,1.89-7.81,4.69-14.92,3-7.63,7.24-18,12.74-18a5.89,5.89,0,0,1,3.95,1.9C505.07,1224.12,502.38,1235.53,495.07,1248.13Z" style="fill:#f7faf1"/><path d="M590.43,1250.37c-7.85-15.36-14.47-27-18.32-33.21-5.28-8.43-8.79-11.87-9.81-15.08a4,4,0,0,0-1.45-2.17,4.83,4.83,0,0,0-2.38-.59,4.91,4.91,0,0,0-2.35.67c-3.72,2.69-.54,11.23.49,20.5,2,18.08-6,22.69-8.36,50.69a156.62,156.62,0,0,0-.53,16.92,66.28,66.28,0,0,1-2.12-16.71c.11-21.4,10.94-32.65,7.2-52a48.59,48.59,0,0,0-1.62-6.11c-.38-1.14-3.19-10,1.41-15.66.78-1,2.7-3.31,5.65-3.34,2.74,0,4.76,2.41,5.71,3.56,12.61,15.31,24.83,43.75,27.56,47.26,1,1.34,1.31,2.48,1.83,4.75a.58.58,0,0,1,.06.26.6.6,0,0,1-.06.27C592.92,1251.07,591,1250.53,590.43,1250.37Z" style="fill:#f7faf1"/><path d="M672.63,1157.48c-23.88,0-92.69-4.54-116.58-4.54,0-.87,7.06-.57,7.06-1.44,7.88,0,54.22,1.9,62.07,1.91,9.9,0,19.2,1.15,29.09,1.6,6.1.28,12.15,1.72,18.22,2.64Z" style="fill:#f7faf1"/><path d="M514.23,1293.45l-7,2.24c-1.94-4-3.46-8-5.76-11.51-7.24-10.86-8.57-22.89-7.23-35.58,1.22,6.9,1.55,14.13,3.88,20.6,2.91,8,7.4,15.51,11.53,23,.55,1,3,.87,4.64,1.29Z" style="fill:#f7faf1"/><path d="M541.47,1766.39l8.32,4.17c-.49-5.38-1-10.26-1.4-15.15l1.16-.11c.83,6.73,1.67,13.47,2.8,22.65l-10.73-11.73Z" style="fill:#f7faf1"/></g></svg>