<svg id="Layer_1" data-name="Layer 1" xmlns="http://www.w3.org/2000/svg" viewBox="0 0 365.62 53.86"><text transform="translate(18.68 -12.86)" style="font-size:58.17036056518555px;fill:#231f20;font-family:MyriadPro-Regular, Myriad Pro"><tspan style="letter-spacing:-0.02100175545810807em">A</tspan><tspan x="34.38" y="0">yushi K</tspan><tspan x="206.62" y="0" style="letter-spacing:-0.006983797178715393em">o</tspan><tspan x="238.15" y="0" style="letter-spacing:-0.009988844522441488em">w</tspan><tspan x="280.38" y="0">e</tspan></text><path d="M352.24,28.55c.49.1.36-.34.45-.41C351.84,28.14,352.25,28.67,352.24,28.55Z" style="fill:#5d97d1"/><polygon points="343.88 28.58 344.05 28.42 342.79 28.7 343.88 28.58" style="fill:#5d97d1"/><path d="M336.18,27.71c.65.79,2.8.19,4.15.6l.2.19.69-.51A32.64,32.64,0,0,1,336.18,27.71Z" style="fill:#5d97d1"/><path d="M332.23,25.71c.22.3-.92.14.95.19l-.17-.09C332.84,25.8,332.61,25.77,332.23,25.71Z" style="fill:#5d97d1"/><path d="M333,25.81c.81.07-.51-.29,0,0Z" style="fill:#5d97d1"/><path d="M329.24,25.59l1.09-.15c-.2-.18-1.15-.31-.79-.39C328.43,25.07,328.64,25.26,329.24,25.59Z" style="fill:#5d97d1"/><path d="M328.17,26l.56-.05C328.64,25.88,328.5,25.84,328.17,26Z" style="fill:#5d97d1"/><path d="M329.93,25.85l-1.2.11c.15.13.14.36.55,0C329.17,26.13,329.42,26,329.93,25.85Z" style="fill:#5d97d1"/><path d="M330.59,26c.59.21,1.35.39.25.53C332.9,26.67,332.65,26.13,330.59,26Z" style="fill:#5d97d1"/><path d="M335.7,28.4l.78.29.72-.16C336.84,28.61,335.68,28.17,335.7,28.4Z" style="fill:#5d97d1"/><path d="M322.6,24.58c-.09.14.32.43.38.63l.81-.09C323.39,25,322.63,24.81,322.6,24.58Z" style="fill:#5d97d1"/><path d="M323,25.21l-1.21.15C322.82,25.49,323,25.39,323,25.21Z" style="fill:#5d97d1"/><polygon points="327.9 26.78 329.9 26.42 327.52 26.75 327.9 26.78" style="fill:#5d97d1"/><polygon points="318.07 24.12 318.78 23.84 317.53 24.25 318.07 24.12" style="fill:#5d97d1"/><path d="M315.06,23.89c.53-.24-.63-.55-.09-.68a7.7,7.7,0,0,0-2.19.32A5.21,5.21,0,0,1,315.06,23.89Z" style="fill:#5d97d1"/><path d="M311.7,23.75a8.29,8.29,0,0,0,1.08-.22A4.23,4.23,0,0,0,311.7,23.75Z" style="fill:#5d97d1"/><path d="M319.76,25.09a1.38,1.38,0,0,0-.89-.52l.42.47Z" style="fill:#5d97d1"/><path d="M319.31,25.06l0,0-1-.12Z" style="fill:#5d97d1"/><path d="M319.88,25.1h-.12C319.8,25.14,319.82,25.15,319.88,25.1Z" style="fill:#5d97d1"/><path d="M324.83,26.09c-.72.17-2.19.29-.82.79C324.53,26.63,323.75,26.35,324.83,26.09Z" style="fill:#5d97d1"/><path d="M320.4,25.69l1.25.22c0-.11-.22-.3.13-.38Z" style="fill:#5d97d1"/><polygon points="319.77 25.77 320.4 25.69 319.94 25.61 319.77 25.77" style="fill:#5d97d1"/><path d="M313.82,24.36a6.85,6.85,0,0,1-1.83.06,17.9,17.9,0,0,0,2.16.33C314.26,24.63,314.59,24.42,313.82,24.36Z" style="fill:#5d97d1"/><path d="M316.48,24.73l-.12,0C316.43,24.79,316.49,24.81,316.48,24.73Z" style="fill:#5d97d1"/><polygon points="305.37 23.85 305.47 23.94 305.5 23.87 305.37 23.85" style="fill:#5d97d1"/><path d="M314.26,24.84a1.93,1.93,0,0,0,1.19,0,11.74,11.74,0,0,1-1.3-.05C314.1,24.81,314.09,24.85,314.26,24.84Z" style="fill:#5d97d1"/><path d="M309.84,23.78c.27.11.58.22.91.32C310.49,23.94,310,23.68,309.84,23.78Z" style="fill:#5d97d1"/><path d="M316.19,24.61h.08C316.1,24.49,316.12,24.54,316.19,24.61Z" style="fill:#5d97d1"/><path d="M316.19,24.61a4.42,4.42,0,0,0-.74.19,8.31,8.31,0,0,0,.91-.05A.79.79,0,0,1,316.19,24.61Z" style="fill:#5d97d1"/><path d="M303.14,26.42c.13-.38,1.58-.63,2.77-.11,1.23-.2.56-1.56-.44-2.37-.05.17-.06.33-1.33.46.42.25,2.72.73,1.64,1-1.66.07-1.34-.25-2.12-.52.64.54-2.16.54-1.86,1.3l1.47-.14C303.29,26.15,302.75,26.29,303.14,26.42Z" style="fill:#5d97d1"/><path d="M307.84,24.17h.52a6,6,0,0,1-1.73-.68c-.87.13-1.06.26-1.13.39l2.52.26Z" style="fill:#5d97d1"/><path d="M310.66,24.35c-.44.39-1.69.48-1,1,1.5.1,1.08-.26,2-.36-2.43-.13.72-.17-1-.59a11.37,11.37,0,0,1,1.32,0c-.43-.1-.85-.2-1.24-.32l.06,0h0c.09.06.13.1,0,.05h-.05a.42.42,0,0,1-.12.15c-.7-.16-.1-.12.12-.15l0-.06h0l-2.45,0A15.14,15.14,0,0,0,310.66,24.35Z" style="fill:#5d97d1"/><path d="M322.62,27.68a.14.14,0,0,1-.07-.11C322.39,27.61,322.33,27.64,322.62,27.68Z" style="fill:#5d97d1"/><path d="M321.65,27.32a1.47,1.47,0,0,1,.92-.1c.48.18,0,.21,0,.35.36-.08,1.24-.19.18-.51l-.18.05c-1-.24-2.16-.9-2-.94A3.32,3.32,0,0,0,321.65,27.32Z" style="fill:#5d97d1"/><path d="M316.08,25.94l-2,0,1,.47,0-.23C316.14,26.4,315.92,26.1,316.08,25.94Z" style="fill:#5d97d1"/><polygon points="305.16 23.62 305.47 23.19 304.24 23.73 305.16 23.62" style="fill:#5d97d1"/><polygon points="302.52 23.46 302.65 23.08 301.94 23.26 302.52 23.46" style="fill:#5d97d1"/><path d="M153.9,24.14l-.59.13A2.81,2.81,0,0,0,153.9,24.14Z" style="fill:#5d97d1"/><path d="M158.2,24.05l.1-.2C158.11,24,158,24.05,158.2,24.05Z" style="fill:#5d97d1"/><path d="M237.85,19.69c-.86-.4-1.81-1-1.72-.56l.25.45A3.91,3.91,0,0,1,237.85,19.69Z" style="fill:#5d97d1"/><path d="M193.47,21.43l.26.13.58-.41Z" style="fill:#5d97d1"/><path d="M192.86,23.22l-1.15-.28A6.41,6.41,0,0,0,192.86,23.22Z" style="fill:#5d97d1"/><path d="M130.43,25.41l-.67.47C130.84,25.83,130.35,25.63,130.43,25.41Z" style="fill:#5d97d1"/><path d="M275.56,21.66a9.36,9.36,0,0,0-1.85-.38C274.6,21.58,275.3,22,275.56,21.66Z" style="fill:#5d97d1"/><path d="M155.48,19.49c-.36.09-.51.19-.5.28C155.35,19.69,155.56,19.6,155.48,19.49Z" style="fill:#5d97d1"/><path d="M271.55,21.14l.39.13a9.55,9.55,0,0,1,1.77,0A3.24,3.24,0,0,0,271.55,21.14Z" style="fill:#5d97d1"/><path d="M45.43,31.34a1.2,1.2,0,0,1-.2,0C45.22,31.37,45.3,31.37,45.43,31.34Z" style="fill:#5d97d1"/><path d="M20.22,29.82c.24-.05.64-.1,1-.15A4.13,4.13,0,0,0,20.22,29.82Z" style="fill:#5d97d1"/><path d="M292,22.42c.56,0,.09,0,0,0Z" style="fill:#5d97d1"/><path d="M294.54,24.35c-.12,0-.22.09-.24.19A.38.38,0,0,1,294.54,24.35Z" style="fill:#5d97d1"/><path d="M265.84,23.5h0C266,23.59,265.92,23.57,265.84,23.5Z" style="fill:#5d97d1"/><path d="M292.78,22.69a3.92,3.92,0,0,0-.7-.19A7.18,7.18,0,0,0,292.78,22.69Z" style="fill:#5d97d1"/><path d="M292.68,22.47l.49.08C293.24,22.49,293.19,22.44,292.68,22.47Z" style="fill:#5d97d1"/><path d="M291.18,22.38a6.31,6.31,0,0,1,.9.12c-.11,0-.15-.07-.12-.08Z" style="fill:#5d97d1"/><path d="M90.83,26.15l-.12,0C90.16,26.34,90.41,26.29,90.83,26.15Z" style="fill:#5d97d1"/><path d="M223.18,23.73l.06,0-.08,0Z" style="fill:#5d97d1"/><path d="M221.17,24a2.33,2.33,0,0,1,2-.33l-.63-1.26Z" style="fill:#5d97d1"/><path d="M143.6,24.56l1.42.35c-1.67.68-2.91.5-1.57,1,.16-1.36,5.46-.29,5.61-1.65l.94.26c-.27,0-.31.07-.57.06,1.82.6,1.31-1,3.64-.89.81.09,1.38.27.83.44l1.8-.38c.52,0,.4.25-.12.24l2.74-.19,0,0a15.42,15.42,0,0,1,1.71-.73c.7.18-.35.16-.17.32l1.52-.37c.63.33-.63.71-1.68.69,1.45,1.32,1.25-.39,4.34.37l-1.43.19c.94.76,2,.46,3.69.92-.39-.24-3.28-1.17-1.63-1.53a3.69,3.69,0,0,0,2-.14c0,.48.88.35,2,.31l-.06.64c1.17-.2,1.08-.52,1.76-.82a2,2,0,0,1,1.91.95c2.1.08-1.46-.77,1-.92a14.51,14.51,0,0,0,5.06-.47c1.23.21-.21.4.23.58l1.08-.53c.27,0,.19.17.14.25.92-.21.07-.64,1.51-.83.39-.72,3,1,4.73.22.44.18-.21.39-.07.64a21.09,21.09,0,0,0,4.1-1.08l1.7.43c-1.25-.49.35-1.05,1.76-1.51a10.67,10.67,0,0,0-1.08-.54l2.25-.33c.27.1,0,.32-.33.59l.41-.16c.81.24.39.61-.19,1l-.8-.4c-.56.39-1.08.82-1,1.19a2.37,2.37,0,0,1,.73-.17c-.14.1-.24.2-.17.26s.31-.07.68-.23l.5.71.13-.28,2.93.45c2.1-.7,3.94-1.77,7.27-2-.83.51-.18.85-.24,1.47-.9-.68-2.58.27-4.3.12.9.07.7.37.47.47l3.08-.59c-.07.51.65.39,1.45.62-.59-1,2.3-.63,3.56-.91.07.34-.23.68-1.76.57,1.68.78,2.2-1.14,3.84-.47-.37,0-.57,0-.72.12.88-.29,3,0,2.5.27h-.38c2.48.17,7.54.15,7.93-.69a3.66,3.66,0,0,1-.5,1.19l4.49-2.78c-.4.72,1.05,2.49-1,2.86a6.31,6.31,0,0,0,2.56,0c-.39-.12-1-1.09-.42-1.14a13.7,13.7,0,0,0,2.88,1.22c-.6-.17.1-1.29,1.05-1.23-.15.17.05,1.14-.3,1.25l2.4-1.05c-.59.18-.13.95.39,1.29-.24-.23,2,.09,2.68,0l-1-.3c2.67.26,2.7-1.49,5.35-1.34a.87.87,0,0,0,.5,1.59c.64-.55,2.85-2.67,5.22-3l.44.35,1.82-.31a38,38,0,0,1-6.13,3.19c1,.29.26.39,1.76.41.52.33-.83.44-1.27.45l3.48.32c-.13-.69,2.7-.58,2.59-1.14-1.28.16-2.55.37-3.82.56-.13-.67,2.27-1.86,4.74-1.61.62.3-.52,1.18-.48,1.4a6,6,0,0,1,2.58-.15l-1.06.31c1.36.32,2.29-.78,3.91-.06.57.07,1.66.95,1.78.56-.89-.81-1-3.19-.31-3.74a25.13,25.13,0,0,1,3.6,1.3c.91.64-1.48,1.36-.71,1.91,0-.18.58-.38.8-.44.59.18-.28.55,1,.54.25-.67,2.64.19.64-.55,1.29-.13,1.35.21,2.85.25-.45-.46,1.42-1.43,2.72-1.56-.09.17.18.41.32.52,2.61.18,4,.61,6.43.77.22.18,1.38.45.86.71a3.7,3.7,0,0,1,1.45-.27c1.41.68-1.68,0-.62.76.12-.39,2-.42,3.06-.6-.29-.63-2.46-.27-3.55-.1,0-.84,2-1.6,4.55-1.82,2-.08.84.6,1.2.5,3.79.4,3.34-1.26,6.46-.45,1.22.62,0,1.08.23,1.48-1.66.1-2.51-.51-3.63-.56l1.36.35a5.08,5.08,0,0,1-2.23,0c1,.56,6.42.48,9.32,1.18.53-.14,1.44-.26,1-.51h-.93c-.82-.5,1.79-.45.63-.75A10.87,10.87,0,0,1,295.9,24l.28.64c0-.19-1.12-.46-1.63-.31.76-.22,2.63,1,3.49.3l-1.2-.52a12,12,0,0,1,4.42-.41c-.66-.66-.37,0-1.42-.76.89,1-4-.35-2.51.69-1.06-.91-1.93-.5-3.36-1.32,0,.2.5.43-.8.22a1.22,1.22,0,0,1-.3.16l-.09,0,.07,0c-.06,0-.06,0,0,0a1.47,1.47,0,0,1,.64.36c-.68.41-2.76.22-3.48.41-.76-.16.35-.21-.06-.46l-1.08.28c-.07-.46-2-.88-.16-1l-1.64-.13A7.78,7.78,0,0,0,284,21.8c-.77-.14-2,.37-1.29.07l-2.6.11,0-.12c-2.54-.22-5.28.4-8.14-.59a13.1,13.1,0,0,1-3.18-.09l-.26-.4c-1.1.06-3.28-.56-3.78-.18-1.13-1.11-5.33-.5-7.26-.78l-.09.51a28.73,28.73,0,0,0-4.28.1l.08.46c-1.44.29-3.65-.5-5.91-.57.16-.16.73-.09,1.13,0-2.65-1.16-5.72.53-8.13-.3a2.66,2.66,0,0,1-1.48-.06l.15,0h-.25c-.26-.09-.54-.19-.83-.27a3.68,3.68,0,0,0,.7.27,13.71,13.71,0,0,0-1.89.11l-.28-.49h-.16c-.68-.21-.56.2-.21.58a4.74,4.74,0,0,0-.93.26c-.53-.8-1.84.2-2.57-.66-.49.39-3.53.19-3.92,1,0-.12-.23-.18.15-.17a5.08,5.08,0,0,0-2.26,0l-.31-.62-1.72.77c-1-.39-1.45-.61-.41-1.07-2.49.68-2,.24-4.14.92l.11-.39c-.75,0-2,.5-2.41.17-1.67-.79-8.33-.26-12.65-1,.83,1.18-2-.55-2.18.36-.25-.28-.85-.43-.15-.67-2.21.26-3.31-.45-4.84.31-.25-.28.47-.4.25-.57-.18.06-.71.24-.93.07s.32-.23.67-.35c-2.26,0-2.49.89-2.66,1.69a2.49,2.49,0,0,0-2.53.19c-.4-.26-1.06-.54.34-.63-.79,0-4.82-.39-4.89.25a2.33,2.33,0,0,0-1.31,0c-1.77-.05-1.93-.1-3.66-.05l.48.11c-.68.76-1.44.17-2.84.28l0-.07c-3.21-.52-1.38.28-4.56-.32l.18.48c-.28,1-2.81-.57-4.64-.16l.66.27c-1,.37-2.82-1.37-3.83-1.48-.22-.09.35-.15.65-.22-2.65-.58-.33.63-2.3.8-.36-.33.46-.87-.87-.91-.66-.26-3.82,1.13-5.64.53.41.25.81.5-.1.72-1.4.14-3.81-.88-5,0-.18-.07-.25-.13-.26-.2-1.07.24-3.47.45-4.1.92-1-1.63-6.63,1-6.65-.54l-3.29.17.08-.16a5.93,5.93,0,0,0-3.56.78c-.49-.09-.14-.24-.1-.33a11,11,0,0,0-5.93.78l-.29-.48c-.69.31-4.48-.59-7.47.12,0-.06.09-.16.33-.24a21.54,21.54,0,0,1-5.5,0c-1.77-.08-3.27,0-3.84.9l-2.21.58c2.9,0-.38.81.82,1-1.13.17-3-.37-1.58-.55l.23.08c.46-1-3.61-.12-3.57-.77-5.69.38-11.27.16-16.6.56l.67.68-1.86.1c-.5-.14-.7-.53.63-.59-.73-.37-2.2.51-2.22.67-2.62-.11,1-.93.15-.89L88,22.74l.25.07a4.65,4.65,0,0,1-2.5.76c-1-.07-.55-.41-1-.41,0-.05-.14-.06-.61,0l-2.35.11,1,.5c-1,.37-2.2.14-1.07.71-.83-.44-3-.37-5.12-.22a39.08,39.08,0,0,1-4.63.34,14.83,14.83,0,0,1-4.62.78c.45.08.77.7-.76.76.44-1.39-2.86-.33-4.18-1.18,1.16.54-4.34.55-2.52,1.3-1.28,0-.12-.49-1.12-.72-3,.77-6.73.32-10.46.89,0,.18.61.38-.16.72l-2.07-.66c-.74.16-.58,1.08-2,.62.21.12.52.31,0,.42a79.06,79.06,0,0,0-11.21,1,48.43,48.43,0,0,1-11.35.64c1.05.21.38.33-.39.44.51,0,0,.43.17.65L18.2,30c-.48.73-3.34.45-3.58,1.12l1-.23c-1.22.9,2.05,1.42,2,2.4,1.37-1,4,.77,6.28-.72.56.12-.41.36-.1.54a3.77,3.77,0,0,1,2.67-.64l-.14.12c3.83-.55,5.52-.38,9.86-.59l-.38-.44a5.12,5.12,0,0,1,1.6.17c1-.83-2.61.23-1.73-.66,1.34.83,6.54-.67,7.49.33,1.43-.15-.47-.5,1-.65l.41.26.32-.42c1,0,1.46.28,1.52.53a5.73,5.73,0,0,0-.88.18c1.25.22,3.4-.48,3.83-.41l-1.39,0c3.87-.69,8.66-.82,12.37-1.73l-.31-.2c2.84-.67,2.33,0,5.47-.44l-.11.07a6.72,6.72,0,0,1,2.31-.52c-.77.33,1.55.37.53.75,3.08-.72,1.51-.48,3.5-1.5l.51.33a4.18,4.18,0,0,1,2.29-.82c-1.27.44,1,.48-.36,1,3.37.5,4.85-1.21,6.47-.15,1.44-1.14-2.92-.35-2.08-.64-.75-.28,1.19-.86,2.24-.83s1.91,1.17,4.57,1c-.27,0-.28.09-.55.11,1,.18,1.93-.5,3.19-.17.63-.67,1.58-.08,1.72-.89l-2.43.37c1.37-.31,2.61-1.33,4.92-1.05a4.65,4.65,0,0,1-1.29.58c.69.18,1.28-.25,2-.06-.14.8-3,.39-4.4,1.1.74.28,2.76-.78,2.08.13,1-1.16,2.63-.05,4.38-1l-.09.48a5.53,5.53,0,0,1,1.38-.39l-.9.69c1.42-.63,2.84.24,4.22-.12-2.93.19-.69-.54-2-.8,3.58-.86,2.17,1.12,6.2.65-.54.1-2.08-.17-1.23-.44a8.58,8.58,0,0,1,2.29.4c2.68-.26-.44-.46.69-.82,1,.52,1.3-.31,2.47-.57l0,.48c3.07.13.75-1.05,3.53-.84l-1.13.74,1.43-.26-.27.57a7.81,7.81,0,0,1,3.57-.36c-.37-.32.15-.89,1.51-1,.94.23-.49.49,1.42.3a1.42,1.42,0,0,1-1.73.34c-.08.17-.41.33-.49.49a10.33,10.33,0,0,0,3.2-.12,3.34,3.34,0,0,1-.76-.06l2.75-.81c.45.17.11.33-.23.48.57-.07.94-.31,1.77-.39-.19.4-.12.8-1.29,1l2.64-.55c.18.16,1.38.41,1,.57,1.48.16,3.58-.92,5.54-.7a1.75,1.75,0,0,1,.71-.24c1.84,0,3.48.42,5.64-.21l1.26.65c1.69-.23-1.71-.81,1.12-1.2,2-.31.77.57,1.48.74a7.08,7.08,0,0,1,4.56-.63A12,12,0,0,1,143.6,24.56Zm21-.85c-.41.1-1.21.43-1.52.14C163.55,23.3,163.91,23.56,164.61,23.71Zm32-1.35a1.79,1.79,0,0,1-1.3-.1A3.74,3.74,0,0,1,196.57,22.36Zm89.24,0,0,0C284.87,22.14,285.19,22.24,285.81,22.37Zm1.88.33c.19-.05.18-.12.11-.19a1.9,1.9,0,0,1-1.05,0C286.88,22.67,287.11,22.77,287.69,22.7Zm-203,.66.38.09C84.2,23.65,84.42,23.51,84.64,23.36Z" style="fill:#5d97d1"/><path d="M192.94,23a.37.37,0,0,1-.17-.26C192.6,22.83,192.6,22.92,192.94,23Z" style="fill:#5d97d1"/><path d="M130.56,25.32h-.07a.24.24,0,0,0-.06.09Z" style="fill:#5d97d1"/><path d="M258.22,25a2,2,0,0,1-.74-.29C257.45,24.86,257.63,25,258.22,25Z" style="fill:#5d97d1"/><path d="M297.75,22.67l-1.22,0a2.78,2.78,0,0,1,1.08.24C297.59,22.83,297.37,22.65,297.75,22.67Z" style="fill:#5d97d1"/><path d="M308,26.49c.19,0,.38,0,.56,0l0-.23C307.76,26.19,307.22,26.33,308,26.49Z" style="fill:#5d97d1"/><path d="M298.74,24.36c.06.41.83.33,1.68.33l-.15,0C300.57,24.13,299.65,24.24,298.74,24.36Z" style="fill:#5d97d1"/><path d="M300.62,24.69a5,5,0,0,1,.78,0C301.52,24.52,301.09,24.67,300.62,24.69Z" style="fill:#5d97d1"/><path d="M290.1,22.61c.39.13.29-.5.5-.32C291.09,21.81,287.88,22.7,290.1,22.61Z" style="fill:#5d97d1"/><polygon points="299.32 25.75 299.06 25.22 298.55 25.59 299.32 25.75" style="fill:#5d97d1"/><path d="M292.67,24.84l1.34.25c0-.09.16-.12.38-.14C293.56,24.86,292.65,24.69,292.67,24.84Z" style="fill:#5d97d1"/><path d="M294.39,25a3.92,3.92,0,0,0,1.09,0A7.88,7.88,0,0,0,294.39,25Z" style="fill:#5d97d1"/><polygon points="297.46 25.75 297.07 25.61 296.12 25.5 297.46 25.75" style="fill:#5d97d1"/><path d="M278.15,23.74l-1.49.05c-.16.16.23.29.79.26C277.81,24,278.36,23.92,278.15,23.74Z" style="fill:#5d97d1"/><path d="M282.52,25.4a1.36,1.36,0,0,1-.63-.42l-.09.61Z" style="fill:#5d97d1"/><path d="M278.21,25.26c-.16.17-2.17.36-.3.44C278.07,25.54,279.55,25.49,278.21,25.26Z" style="fill:#5d97d1"/><polygon points="256.02 23.21 256.39 23.23 256.39 22.2 256.02 23.21" style="fill:#5d97d1"/><path d="M236.32,24.83c1.74.31.44-.61,2-.25.42-.23-1.29-.29-.86-.49C236.41,24.31,235.86,24.15,236.32,24.83Z" style="fill:#5d97d1"/><path d="M237.47,24.09A4.77,4.77,0,0,0,238,24,2.4,2.4,0,0,0,237.47,24.09Z" style="fill:#5d97d1"/><polygon points="16.05 29.78 14.9 29.7 15.67 29.95 16.05 29.78" style="fill:#5d97d1"/><path d="M14,30.79l-.34-.61-.6.66A1.69,1.69,0,0,1,14,30.79Z" style="fill:#5d97d1"/><path d="M167.75,25l.09-.16c-.18-.17-.44-.18-1-.2Z" style="fill:#5d97d1"/><polygon points="152.5 24.82 152.76 24.82 152.26 24.25 152.5 24.82" style="fill:#5d97d1"/><path d="M139.74,25.93c.52,0,1.13-.15,1.65-.14C140.26,25.93,139.57,25.21,139.74,25.93Z" style="fill:#5d97d1"/></svg>