<svg id="Layer_1" data-name="Layer 1" xmlns="http://www.w3.org/2000/svg" xmlns:xlink="http://www.w3.org/1999/xlink" viewBox="0 0 951.83 2094.61"><defs><clipPath id="clip-path"><rect x="73.15" y="80.49" width="805.52" height="1933.63" style="fill:none"/></clipPath></defs><g style="clip-path:url(#clip-path)"><path d="M361.46,272a592,592,0,0,0-65,51.86c-7.34,6.69-14.23,13.43-18.83,24.58-6.19,15.14-5.36,31.87-.71,50.47,15.09,60.57,31.79,73.19,90.48,60.77,34.23-7.24,67.83-17.92,96.42-25.64-3.43-24.23-6.26-44.26-9.12-64.3l7.33-1.06c1,9.21,2.3,18.42,2.74,27.76.49,10.27,3.18,17.66,8,22.51,4.18,4.29,9.61,6.86,26.11,8.13,32.33,2.52,42.75-3.94,64,2.19,11.91,3.41,19.56,8.53,19.22,9.77-.83,2.65-38-15.55-52.82-1.19-7.17,6.94-6.77,19.1-5.67,36.34,1,15.5,3,31.92,9,45.93,35.65,84.19,30.44,168.8,4.89,254C532.37,791.24,525,807.87,522,825.3c-1.83,10.6,2.67,22.39,4.33,33.64l7.63-.7,11.37-57.39,2.67.35c-1.59,12-1.64,24.41-5.07,35.76-7,23.45-1.32,43.64,11.15,63.09,24.34,37.86,47.22,76.14,50.55,123.08.34,4.72,1.15,13.83,2.13,32.1,2.27,42.45,2,73.66,1.93,75.48-.51,40.07-45.88,142.18-122.27,264.7,3.25-10.1,8.34-25.24,15.33-43.26,21.55-55.34,35.8-72.85,58.15-121.46,22.77-49.48,34.8-75.7,39.91-114.77a303.09,303.09,0,0,0-5.06-100.82,315,315,0,0,0-59.84-126.93c.2,8.12.61,19.78,1.59,33.76,2.72,38.26,4.06,57.36,9.27,72.53,9.22,26.9,19.81,27.53,44,73.76,6.72,12.77,11.59,23.58,14.67,30.54-5.11-6.76-12.52-16.71-21.25-28.92-38.76-54.18-44.36-70.43-47-80a188.78,188.78,0,0,1-6.14-38c-.51-12.87.64-24.05-.78-46.46a135.67,135.67,0,0,0-1.61-14.61A121.92,121.92,0,0,0,520,864.37l-4.09-5c-5.47,93.6.4,186.09,27.42,274.8a192.27,192.27,0,0,0,12.42-129.19q-11.18-61.39-22.43-122.85c16.39,41.34,42.21,123.66,28.57,225.49a437.34,437.34,0,0,1-36.17,124.61l2.45-46.18a295.17,295.17,0,0,0-44.61,53.17c-25.06,38.26-25.53,58.53-25.45,64.63a82.18,82.18,0,0,0,3.2,21.5,256.29,256.29,0,0,0,75.81-143.11c-.3,12.92-2.18,53.63-19.05,85a265.24,265.24,0,0,1-23.11,34.8c-8.54,10.63-15.36,18.2-15.36,18.2-11.42,12.61-12.23,11.68-13,14.56-3,11,9.78,18.6,21.18,46.73,1.49,3.74,2.44,6.87,3.22,8.81a40.36,40.36,0,0,1-4.89-2.52c-15-8.66-21.44-24.56-24.23-33.72a155.31,155.31,0,0,0,8.22,56.33c6.65,19.48,16.48,37.52,27.29,47.95-5-25.09-9.78-49.26-14.67-73.44l17.72-26.7a85.39,85.39,0,0,0-2.64,18.55c-.58,20.52,6.68,33.31,12.52,48.76,2.45,6.61,14.5,39.62,11.59,76.44-2,25.51-10.56,45.09-12,44.74-1.86-.43,10.49-33.39,6-75.71-4.4-41.79-23.28-75.13-25.6-74.32-1.52.53,3.47,15.87,9,44.37A629.28,629.28,0,0,1,510,1527.39c4.48-6.56,5.82-8.55,9.12-13.42-.61,7.92-.39,12.62-1.42,17.28-6.16,27.33-1.68,32.56,23.8,37.38,29.17,5.5,57.85,13.78,86.66,21.22,30.05,7.77,38.1,33,42.82,59.94,4.3,24.55-4,44.77-22,61.37-18.85,17.46-24.45,18.3-34.23,34.3-4.33,7.21-10,16.75-8.54,28.31.88,6.76,6.48,13.78,17.63,27.53a417.18,417.18,0,0,0,28.37,31.47c7.21,7.3,12.54,12.24,13.52,13.15,11.32,10.75,24.45,38.54,33.89,111.57a29.17,29.17,0,0,1-6.38-5.78,33.83,33.83,0,0,1-6.94-15.7c-3-15.57-8.34-30.53-11.77-46-3.13-14.21-8-15.37-64.85-86.51-6.23-7.8-14.94-19-14.4-33.59.34-9.77,4.67-16.83,9.78-24.86,10-16,14.89-19.91,37.86-39.36,16.84-14.29,23.5-32,19.8-53-3-17.11-6.77-34.27-19.17-45-3.81-3.31-8.07-5.58-18-9-35.92-12.37-54.07-7.07-82.24-16.78a129.28,129.28,0,0,1-31.23-16,211.81,211.81,0,0,0-11.19,22c-1.69,3.84-11.57,26.63-13.75,42.91-1.49,11.48.69,20.54,24.46,69.34,24.3,50,30.86,58.7,33.11,79.62,2.71,25.24-3,48.56-5.24,48.48s.15-19.35-4.67-44.19c-7.58-39-23.35-45.42-42.42-95.46-10.28-27-16.12-42.91-14.14-64.18,2.45-27,14.67-31.22,21.69-57,7.88-28.64-.61-56.37-17.56-111.84-13.93-45.65-19.95-54.08-29.17-93-4.6-19.51-4.72-40.7-3.62-61,.86-15.87,3.47-33.44,11.08-46.76a247.41,247.41,0,0,1,43.62-57.08c28.57-27,35.93-56.76,25.24-94.69-22.84-80.75-25.77-163.88-19.9-247.31a228.19,228.19,0,0,1,11.61-54.44c27.41-83.53,44.38-167.23,15.19-254.53-3.48-10.39-15.58-36.16-17.12-72.45a194.16,194.16,0,0,1,2.44-39.72l-38.19,4c-6.75,31.7-1,50.3,5.94,61.55,6.16,10.1,11.57,11.49,21.59,24.43a152.35,152.35,0,0,1,23.5,49.39c9.32,35.61-5.5,67.23-13.35,90.85-11,33.13-19.27,83.68-3.74,157-18.05-68.74-13-118.61-4.4-152,6.77-26.34,24-74.54,6.53-108.26-6.85-13.25-16.83-28.77-16.83-28.77-14.67-22.71-20.17-26.37-25.21-37.47s-8.85-27.76-3-53.43L466,440.66a8.45,8.45,0,0,0-4.27,1.59c-9.32,7-.22,34.27,1.07,38,4,11.54,9.27,19.69,16.56,30.66s12.22,16.41,15.21,20.65c11.78,16.27,12.47,36.72,11.12,65.61-2.32,49.69-7.75,63.44-10.15,98.62-3.47,51.46,3.7,88.15,3.75,88.15s-14.07-106-4-153.48c0,0,6-28.19,3.79-52.37-.73-7.82-2-15.75-2-15.75-.78-4.74-1.54-8.37-1.71-9.23-2.86-13.17-13.62-24.78-15-26.27-7.53-8.3-18.73-28.34-35.58-77.43l-4.58,1.47L429,454.46a5.1,5.1,0,0,1,3.49-2.72c9-1.29,24.26,33.18,28.66,67,1.84,14.16,0,14.56,2,33.64A305,305,0,0,0,472.55,601c15.7,59.68,5.5,105.44,21,165.47,5.06,19.56,4.77,41.49,15.09,58.7,1.15,1.95,5.82,9.21,4.4,17.67a20.53,20.53,0,0,1-2.81,7.37q-9.72-27.94-16.68-56.76c-12-49.59-7.95-60.39-19.56-133.75-10.06-63.52-14.8-66.09-18.76-107.63a254.7,254.7,0,0,0-6.51-40.38A243,243,0,0,0,427,455.17l-36,9.13c10.81,49.34,11.27,76,9.51,91.41-1.69,14.48,0,29.65-4.55,43.5-1.78,5.63-4.74,13.08-1.61,20.19,2.44,5.58,6.67,6.11,13.54,11s14.38,16.48,28.64,39.12c4.89,7.9,7.48,11.86,8.73,14.13,20,36.41-3.55,64.17,12.89,104.55,1,2.53,0-.28,20.63,37,11.28,20.36,16.9,30.53,17.64,32.15,19.56,43.23,4.89,89.74,3.37,94.48-8.58,26-25.09,48.78-28.56,47.09-5.65-2.72,41.57-61.4,25.89-122-11.51-44.42-52.4-72.76-54-115.81-.39-10.65-1.61-21.28-1.46-31.92.22-17.06,2-27.76-3.75-41.34-.24-.58-2.2-3.94-6.06-10.65a266.2,266.2,0,0,0-28.46-40.38c-3.13-3.61-5.09-5.63-7.34-5.25-4.89.86-8.61,13.78-5.45,23.19,2.44,7.57,9.24,9.11,19.24,15.15,18,10.92,29.35,25.11,50.18,51.17a148,148,0,0,1,9.78,12.62c16.7,27.51,5.28,56.4,1.66,92.29-5.33,52.77,11.35,69.42,6.75,131.86-1,13-3.52,37.52-20.78,50.47a41.28,41.28,0,0,1-9.12,5,249.65,249.65,0,0,0,20-65.62c10.64-67.28-14.08-95.59-3.91-163.42a90.06,90.06,0,0,0,.17-34c-6.4-31.47-30.71-52.64-33.11-54.66-18.26-15.52-25.89-20.19-25.89-20.19-12.23-6.46-20.06-13.38-19.57-29.38.22-5.9-6.62-15.14-12.37-17.66-11.84-5-18.54-11.79-17.68-25.44,1.27-20.69,3.79-41.44,3.08-62.08-.61-17.67-5-35-7.75-52.52,20.25,18.68,14.21,42.4,12.08,65.62-1.37,14.81-2.45,29.7-2.74,44.59-.24,15.7,9,22.28,24,23.57,8.27-52.36,17.68-103.62-.46-156.19l-37.93,6.69c2.2,6.34,4,11.43,5.77,16.53-27.12-26.82-58.4-17.66-89.4-11.05l.44.25,25.72-15.14c-8.34-13.35-18.24-27-25.87-41.92-11-21.57-17.12-43.68-1.05-66.57,4.13-5.91,5-14.71,6-22.38,2.59-21.23,39.63-78.59,60.71-99.21,44-43.2,161.4-58,282.78,1.64-128.67-45-250.35-32.43-307.74,38.89a158.86,158.86,0,0,0-28.88,57.34ZM284.85,438.31l-22-69.83C256.14,398.34,267.31,418.07,284.85,438.31Z" style="fill:#c7e1ad"/><path d="M573.35,435.89c30.49,1.11,61,2.8,91.43,2.75,4.33,0,11.08-7.75,12.57-13.15,7.19-26.07,2.76-52.44-.2-60.14-7-18.14-13.42-19.28-26.89-40.17-20.76-32.43-16.8-61.23-29.35-63.09a13.59,13.59,0,0,0-6.32,1.11A12.22,12.22,0,0,0,607,275.69c0,20.19-4.89,82.24-8.53,102.74-2.59,14.38-9.27,34.72-28.29,57.56a189.43,189.43,0,0,0,21.08-66.09c4.32-36.52-.15-96.36,11.32-108.95A27.51,27.51,0,0,1,615,253a21.64,21.64,0,0,1,9.1-.2c19.83,4.34,17.11,37.85,40.83,77.95,14.68,24.55,24.46,26.72,28.3,46.28a77.34,77.34,0,0,1-4.77,42.6c6.6-4.57,24.28-18.09,27.8-40.38a57.22,57.22,0,0,0-5.48-33.43C698,318.49,679,294.19,662.65,268.7c-1.85-2.85-5.2-4.72-7.87-7-20.54-17.67-43.55-31.6-64.73-48.33-37.46-29.62-82.58-31-125.2-6.53a639.7,639.7,0,0,0-72.65,46.53c-18.68,13.53-46.61,33.54-81.65,57.77v-4.24a648.4,648.4,0,0,1,98.37-75.71c80.19-50.22,116.79-48.45,127-47.24,17.55,2.12,37.46,5.25,51.2,15.29,10.13,7.39,60.72,27.76,101.19,85.32,23.5,33.39,42.38,60.24,37.71,95.55-4.13,31.29-24.46,52.54-35.12,62a18,18,0,0,0,12,5.37c14.55-.23,24.62-25.51,27.8-38.74,6.26-26-3.82-48.95-8.95-58.77a70.1,70.1,0,0,1,18.17,38.74c2.66,22.51-7,39.62-11,46.76a85.73,85.73,0,0,1-14.31,18.77,207.14,207.14,0,0,1,48.91,10.38c6.14,2.17,15,5.67,25.85,3.48A39.08,39.08,0,0,0,807.61,459c27.83-26.2-15.18-119.57-21.86-134-2.3-5.05-12.62-27.38-16-26.17-2.6.91.78,15,3.2,35.33,2.25,18.73,5.48,45.91,1.08,69.68-2.45,13.07-8.95,34.87-29.91,58.95l-4.26-.83c16.56-20.37,22.77-38.72,25.41-51.13,7.34-33.87,1.13-85.07-4.33-99.26a21.06,21.06,0,0,1-1.34-11.3c.8-4.44,3.71-10.75,7.48-11.84,13.23-3.83,40,56,43,62.82,10.85,24.55,14.06,39.54,15,44.06,3.74,18.7,6.75,34.75-.22,51.88a63,63,0,0,1-20,25.9c13.25,6.25,20.88,4,24.28,2.52,21.64-10.1,16.21-59.63,15.55-65.61s-2.71-21.2-12.71-44.14c-5.92-13.53-14.89-30.29-58-83-21.12-25.77-40.59-48.48-40.59-48.48-20-23.32-31.25-35.74-43.57-56.56a257.54,257.54,0,0,1-16.56-33.05c51.35,66.79,90,112.35,118.87,144.34a235.53,235.53,0,0,1,47.07,72.68c16.21,40.79,13.52,70.66,12.45,79.7A142.33,142.33,0,0,1,844.39,472a53.4,53.4,0,0,0,19.93-18.77c3.72-6.13,12.23-23.37,2.32-59.91-9.14-33.46-23.1-39.57-51.93-87.62-17.12-28.49-36.2-56-50.45-85.8-21.15-44.34-54-61.15-100.58-58.63-43,2.33-116.81,5.25-159.14-.63-25-1-66.93-18-106.11-34.47A605.68,605.68,0,0,0,671.7,148.85a44.1,44.1,0,0,1-5.5-6.23c-1.54-2.14-2.86-4.34-4.18-6.54l-.37.41c14.82,6.41,29.2,16.65,44.51,18.34,25.53,2.86,39.44,19,51.47,38.26C793,249.6,828.55,306,861.63,363.91a132.82,132.82,0,0,1,17.12,60.37c.46,22.26-5.6,38.43-16.26,48.83-16.14,15.7-40,13.35-65.83,10.42C765.14,480,716.94,467.41,681.14,453c-6.53-2.53-23.13-9.57-38.07-2.22a35.27,35.27,0,0,0-10.69,8.45c-18.8,20.34-17.68,51-17.43,57.67.7,19.58,6.84,34.49,11.39,45.42,7.9,19.25,12.23,19.53,16,32.81,6.55,23.09-.66,44.34-3.57,53-8.32,24.53-19,26.93-36.68,56.91-11,18.75-16.39,33.92-22.43,51.05-12.93,36.82-22,62.51-16.36,92.19,2.08,11,9.1,23.87,23.14,49.59,33.84,62,40.86,55.52,46,78.23,6.7,29.88-5.38,41.31,1.88,95.52,1.4,10.29,3,18.67,4.16,24.1a70.39,70.39,0,0,1-7.34-10.1c-20-33.59-.36-63.26-9.46-102.63-4.33-18.68-9.15-13.65-32.74-56.76C567.53,887.13,556.82,867.57,553,846c-11.54-64.68,30.69-145.21,57.29-173,4.06-4.24,20.59-20.64,24.21-44.79a68.66,68.66,0,0,0,.2-18.45c-2.3-17.06-10.49-25.23-18-39.21A119,119,0,0,1,603,525.27c-2.44-29.25,8.76-52.64,12.4-60.06a118.86,118.86,0,0,1,8.58-14.69c-4.2-2.52-11.9-6.33-19-3.58-9.49,3.66-12.69,17.06-14.67,29.58a277.31,277.31,0,0,0,.34,80.75c4.89,34.2,11.34,80-.71,127.07-6.43,25.23-11.59,25-26.68,69.8A675.21,675.21,0,0,0,543,828a392.29,392.29,0,0,1,12.48-77.87c11.17-42.12,18.38-40.56,25.67-70.94,12-50.3,1.37-104.4-1.49-145.56-2.45-35.33-3.4-55,9.32-86.61Z" style="fill:#c7e1ad"/><path d="M750.08,1999.89A114.22,114.22,0,0,0,762.45,1957c.81-9.89,2.44-47.34-19.56-73.61-16.46-19.63-26.34-26.62-26.34-26.62-6.75-4.8-14.45-9-16.9-17.82a32,32,0,0,1-.14-13.78,21.43,21.43,0,0,1,4.89-11.28c5.16-5.35,13.49-5.83,22-5.78,2,0,3.92-.93,1.76-.38,1-25.43,2.45-45.77,3.62-58.72,4.31-51.23,9-70.84-2-94-4.89-10.09-10.44-16.17-19.88-26-19.37-20.19-47.2-48.46-83.41-82.75a279.06,279.06,0,0,1,69.13,49c23.06,22.36,46,44.65,52.3,78.76,2.16,11.59.81,16-1.86,54.82-2.17,31.84-3.25,57.58-3.81,73.94,23.87-9.09,48.91-50.15,49.67-80.25.26-9.72,2.44-25.59,3.91-57.69.44-10.35.51-15.95-1.2-23-4.3-17.89-16.14-29-26.09-38.08-48.15-43.74-72.7-65.62-96.15-64.1-6.14.38-16.31,2.12-24.82,3.58-16.05,2.73-29,5.78-37.64,8a141.18,141.18,0,0,1,42.18-19.84c9.1-2.52,18-4.9,29.5-3.41,10.29,1.32,18.95,3.79,26.63,10.1,25.4,21,50,43.08,74.6,65.16a52.26,52.26,0,0,1,13.55,17.08c7.34,13.5,7.7,26.52,8.12,52.06a394.94,394.94,0,0,1-1.86,43.51,228.59,228.59,0,0,1-4,30.28c-5.48,23.85-23.79,67.16-51.6,71.07-12.22,1.74-23.33-4.7-33.45,3.48-1.22,1-6.24,5-6.21,10.47s5.26,9.39,11.64,14.44c7.78,6.16,14.67,13.58,22.67,19.35,22,15.75,41.42,66.1,26.16,106.88A82.84,82.84,0,0,1,750.08,1999.89Z" style="fill:#c7e1ad"/><path d="M244.69,484.92c-6,5.05-15.3,12.42-27.09,20.8-26.21,18.64-39.88,28.16-59.81,31.84-9.78,1.79-22.16,4.09-35.61-1.26-20.05-8-29-27.76-37-45.42-6.29-13.81-13.38-54.34-11.86-106,.56-18.35,14.13-38.69,26.7-53.81C155.39,264.74,212.32,199.86,269.1,134.8c8.46-9.69,37.9-31.8,60.16-42.5,1.54,4.62,10.95,1.46,10.39,1.77-71.8,38.46-136.8,137.41-186.29,195.25a300.44,300.44,0,0,1-34,34.92c-32.75,27.59-45,62.56-38.35,105.06,3,18.88,2,35.33,10.13,54.84,6.4,15.32,15.5,37.07,36.5,45.25,16.88,6.56,33.29,1.21,41.58-1.47,15-4.89,19.8-11.56,41.2-24.8A296,296,0,0,1,244.69,484.92Z" style="fill:#c7e1ad"/><path d="M432.64,1431.87c-4.13,1.17-10.95-12.26-12.81-15.77-24.45-46.48-97.59-100.94-84.71-127.44,2.67-5.48,6.9-7.39,18.64-23.27a99.15,99.15,0,0,0,8.95-14.81c5.72-11.58,19.27-38.89,10.85-64-8.73-26.1-31-21.53-39.12-46.66-7.95-24.53,6.16-53.88,21.71-69.78,10.32-10.58,12.65-6.36,39.57-23.62,21.86-14,26.07-20.37,53-39.93,12-8.7,24.65-16.43,37.61-25-9.54,18.45-24.33,33.14-41.16,47-13.27,11-26.28,23.42-36,37.68a57.08,57.08,0,0,0-9.15,22.38c-4.13,23.85,11,44.77,15.31,50.85,9.78,13.68,15.6,13.81,23,28.14a81.74,81.74,0,0,1,8,25.24c5,31.69-10.81,51-19.76,97.51-4.42,23.11-8.58,45.9-2.05,73.18,4.16,17.39,8.95,21.35,16.24,42,10.59,30.06,12.22,54.94,13.3,74.25,4.55,74.09-23,89.66-22.84,166.35,0,53.68,13.67,96.2,9.24,97.31-2.81.74-10.17-15.87-14.67-31.47-19.78-68.56,15.26-119.72,18.42-220.66.61-20-.44-28.26-1.08-32.5-5.6-37-21.52-49-29.12-87.55a122.24,122.24,0,0,1-1.84-31.44c2.86-49.11,11.81-77.65,11.81-77.65,5.68-18.1,11.3-28.62,11.64-46.26.44-22.56-8.12-41.23-15.62-53.68a153.64,153.64,0,0,1,3,33.62c-1.08,49.23-25.95,64.91-31,109.45-4.89,43.1,13.21,74.47,9.61,75.7-3.1,1-16.43-22.1-19.76-50-2.74-22.94,2.23-41.34,7.34-59.43,9.44-33.67,16.11-30,22.25-57.84.54-2.53,10.69-50.27-3.91-72a100,100,0,0,1-8.71-15.14,111.47,111.47,0,0,1-6.92-19.86c-2.69-12.62,4.67-34.28,20.59-55.25-13.86,4.45-44.82,16.61-61.38,45.43-3.69,6.38-7.8,13.73-7.33,23.32.95,18.85,19.19,36.39,22.81,39.87A51.84,51.84,0,0,1,380,1176.76a49,49,0,0,1,3.89,13.25c4.25,28.19-10.69,59.51-10.69,59.51-15,31.49-26.26,27.58-28.46,41.87-6.68,43.17,93.09,99.12,91.16,130.74C435.82,1424.41,435.36,1431.12,432.64,1431.87Z" style="fill:#c7e1ad"/><path d="M639.91,1541.9l-18.44,13a163.28,163.28,0,0,1,41.77,35.33c7.34,8.81,26.9,31.85,33.48,64.15,6.72,33-5.75,47-12.82,98.42a399.35,399.35,0,0,0-2.69,81.71,213,213,0,0,1-7.65-80.6c4.62-43.91,22.77-72.4,9.27-109.45-2.45-6.46-5.45-12-11.64-23-10.74-19.08-22.35-40.76-42.45-54.34a101.47,101.47,0,0,0-34.24-14.63c-36.43-8.48-60.52-54.31-67.81-93.88-6-32.81,2.69-59.78,10.35-83.28,4.52-13.88,13.47-31.09,31.22-64.88,27.39-52.16,31.13-54.08,37.71-73.92a219.58,219.58,0,0,0,11.42-71.92,209.31,209.31,0,0,0-12.84-68.49,75.83,75.83,0,0,1,11.5,12.37c27.63,37.32,14.06,91.88,8.87,112.7a216,216,0,0,1-14.13,39.67c-11.47,24.4-19.76,30.28-33.63,53a282,282,0,0,0-28.85,65.71c-9.29,30-15,48.4-12.57,72.25,3.5,34.45,23.92,83,63.58,92.69C612,1547.58,626.36,1543,639.91,1541.9Z" style="fill:#c7e1ad"/><path d="M729.46,162.38c-74.66-65-120.24-54.59-164.13-57.82-49-3.58-97.81-11.81-146.72-14.18-33.23-1.59-66.74,3.41-94.83,5.05,26.9-15.75,62.75-16.4,98.77-13.63,61.52,4.75,123,10.7,184.47,16C638.79,100.43,687.11,102.17,729.46,162.38Z" style="fill:#c7e1ad"/><path d="M480.94,1794.64c-32.47-19.83-47.15-49.11-51-85l13.4,31.92a161.84,161.84,0,0,0,10.47,18.85c4.89,7.35,9.46,10.95,35.6,29.73,22,15.82,24.21,17.19,26,21.9,6.14,15.93-6,33.47-1.61,36.24,2.74,1.72,9.41-3.88,13.33-8.27,17.43-19.49,13.23-51.49,10.85-64.28,3.7,7.8,11.79,27.76,6,50.77-1.71,6.72-5.62,22.16-18.95,29.91-1.52.88-13.28,7.57-18.83,2.88-7.34-6.26,7.6-23.65.68-37.33-9.51-18.77-48.51-7.14-62.89-30.28a41.61,41.61,0,0,0-9.17-12.06c-9.05-7.73-15.8-5.2-22.69-9.49-14.46-9-2.45-31.09-16.83-48.63-8.85-10.83-16.77-6.51-42.57-23a182.16,182.16,0,0,1-19.73-14.61c56.07,9.36,72.65,24.83,76,38.51,2.64,10.7.51,33.69,10.44,39.62a50.94,50.94,0,0,0,9.47,4.56c5.4,1.72,8,1.19,11.22,3.66,2.23,1.72,2.86,3.39,4.89,6.89C448.05,1782.28,452.09,1788,480.94,1794.64Z" style="fill:#c7e1ad"/><path d="M358.65,1699.65c-9.78-3.05-32.62-11.83-48.62-35.33-19.56-28.61-24.45-72.78-3.57-99.53A81.54,81.54,0,0,1,350,1537a58.44,58.44,0,0,0,6.13-1.16c15.17-3.66,36.54-2.24,44-12.11,13.57-17.67,20.05-41.79,26.9-64,3.42-10.93.88-23.78,1.83-35.66.27-3.49,3.26-6.74,6.53-9.32a227.26,227.26,0,0,1-7.82,68.5c-12,43.2-41.7,98-58.25,122.74a104.13,104.13,0,0,0-16,36.42,98.39,98.39,0,0,0-2.28,19.58,58.87,58.87,0,0,1-2.59-20.94c.93-15.15,7.7-24.46,18.51-42.43,16.92-28.16,25.34-42.34,22-48.47-5.14-9.62-28-7.75-42.7-2.2-27.16,10.25-37.53,37.22-39,41.14-.66,1.84-12,34.14,3.35,58.87,6.26,10.09,11.89,10.78,31.4,32.18C349.43,1688.17,355,1695,358.65,1699.65Z" style="fill:#c7e1ad"/><path d="M164.22,534.64c-.69,1.28-34.24-6-54.34-34.85C87.46,467.69,94.72,427.64,97,415.37A144.17,144.17,0,0,1,120.35,360c16.31-24.8,25.77-25.23,49.3-49.94,8.21-8.65,14.67-16.55,85.8-131,8.1-13,8.64-14,10.57-16.33,12.67-15.35,40.84-34.55,119.82-41.34,1.93-.17-78.25-2.67-113.68,49.26-3.82,5.6-1,2.8-12.23,23.55-16.36,30.28-30.91,52-52.84,84.46-11.67,17.26-17.61,26-22.6,31.95-20.12,23.9-29.59,25.24-45.19,42.62-6.38,7.07-27.66,31.32-34,68.14-1.78,10.32-7.33,42.1,8.68,70.66C131.57,523.78,164.9,533.35,164.22,534.64Z" style="fill:#c7e1ad"/><path d="M552.22,1349.61c27.44-17.06,66.69-45.1,96.47-82.68,8-10.09,15.19-20.72,19-35.61,5.33-20.66,2.22-42.44-6.51-64.93-10.78-27.76-22-55.16-31.15-84.31,1.49,1.79,3.27,3.46,4.89,5.2a50.08,50.08,0,0,1,3.81,5.63c42.82,74.39,43.36,116.41,43.36,116.41C682.8,1261.89,629.15,1320.1,552.22,1349.61Z" style="fill:#c7e1ad"/><path d="M679.62,1749.57c1.08,0-.14,24.4,3.75,70.66,2.44,29.86,4.69,40.15,12.22,49.84,9.44,12.06,17.73,11.11,24,23.62,8.48,16.94,2,36.7.53,41.31-4.47,13.78-14.3,28.14-25.45,44.44-5.31,7.78-8,11.11-6.92,15.15,2.44,9.46,24.45,14.05,40.57,9.54,27.34-7.58,37.24-41.44,38.44-45.73.14,1.69,2.44,29.9-18.71,46.28a48,48,0,0,1-35.75,9c-13.33-1.66-32.11-9.56-33.45-21.09-.32-2.53.51-3.59,8.7-20,8.59-17.19,7-14.89,10.27-20.82,8.93-16.45,11.54-17.08,13.94-25.64,1.32-4.72,3.74-13.32.88-22.21-3.62-11.38-12.84-13.73-20.81-22.23-4.89-5.22-10-13.48-13.35-45.2C673.61,1790.1,678.23,1749.49,679.62,1749.57Z" style="fill:#c7e1ad"/><path d="M214.3,364.42c3.89-8.86,22.67-52.57,10-65.39a5.29,5.29,0,0,0-3-1.84c-9.44-1.19-18.31,34.93-36.82,77.12a496.42,496.42,0,0,1-23.36,46.44c-12.44,16.83-24.77,39.64-19.19,61.72,6.87,27.18,37.56,40.38,36.14,42.42s-25.63-6.53-37.56-29a65.56,65.56,0,0,1-6.82-32c.78-35.12,24.45-43.22,41.35-93.09,5.16-15.14,4.77-19.71,11.83-37.63,7.58-19.23,18.25-45.42,32.11-45.42a14.82,14.82,0,0,1,10,4.77C239.51,303.88,232.71,332.65,214.3,364.42Z" style="fill:#c7e1ad"/><path d="M454.75,370.07c-19.81-38.73-36.48-68.13-46.19-83.73-13.33-21.27-22.18-29.93-24.75-38a10.1,10.1,0,0,0-3.67-5.48,12.17,12.17,0,0,0-6-1.49,12.32,12.32,0,0,0-5.93,1.69c-9.39,6.79-1.37,28.32,1.23,51.69,5.06,45.6-15.07,57.21-21.08,127.82a389.51,389.51,0,0,0-1.32,42.67,166.3,166.3,0,0,1-5.36-42.14c.27-54,27.59-82.32,18.15-131.23a117.82,117.82,0,0,0-4.09-15.39c-.95-2.88-8-25.24,3.57-39.5,2-2.52,6.8-8.35,14.23-8.43,6.93,0,12,6.09,14.41,9,31.79,38.61,62.62,110.33,69.49,119.16,2.62,3.38,3.31,6.26,4.63,12a1.8,1.8,0,0,1,.13.66,1.87,1.87,0,0,1-.13.68C461,371.84,456.22,370.48,454.75,370.07Z" style="fill:#c7e1ad"/><path d="M662,135.83c-60.23,0-233.73-11.43-294-11.43,0-2.2,17.8-1.44,17.8-3.63,19.86,0,136.7,4.79,156.51,4.82,25,0,48.42,2.9,73.36,4,15.38.71,30.61,4.34,45.92,6.64Z" style="fill:#c7e1ad"/><path d="M262.59,478.69l-17.5,5.65c-4.89-10.09-8.73-20.19-14.53-29-18.27-27.38-21.62-57.72-18.24-89.71,3.08,17.38,3.91,35.63,9.78,51.93,7.34,20.19,18.66,39.12,29.08,58,1.39,2.53,7.62,2.2,11.71,3.26Z" style="fill:#c7e1ad"/><path d="M331.28,1671.24l21,10.5c-1.25-13.56-2.45-25.87-3.53-38.19l2.91-.27c2.11,17,4.21,33.94,7.07,57.11l-27-29.58Z" style="fill:#c7e1ad"/></g></svg>